<svg width="96" height="96" viewBox="0 0 96 96" fill="none" xmlns="http://www.w3.org/2000/svg">
  <path d="M44.353 20H57.79C58.472 25.772 61.814 31.446 67.625 34.697C71.188 36.687 74.88 37.412 78 37.507V50.472C73.236 50.377 67.766 48.987 62.649 45.941V61.72C62.649 74.37 52.264 84 39.596 84C26.928 84 16 74.009 16 61.158C16 48.307 26.928 38.315 39.596 38.315C41.113 38.315 42.526 38.444 43.939 38.693V51.431C42.733 51.058 41.39 50.892 39.924 50.892C33.029 50.892 27.423 55.695 27.423 61.573C27.423 67.45 33.029 72.254 39.924 72.254C46.818 72.254 51.762 67.699 51.762 61.739V20H44.353Z" fill="#25F4EE"/>
  <path d="M47.431 17H60.868C61.55 22.772 64.892 28.446 70.703 31.697C74.266 33.687 77.958 34.412 81.078 34.507V47.472C76.314 47.377 70.844 45.987 65.727 42.941V58.72C65.727 71.37 55.342 81 42.674 81C30.006 81 19.078 71.009 19.078 58.158C19.078 45.307 30.006 35.315 42.674 35.315C44.191 35.315 45.604 35.444 47.017 35.693V48.431C45.811 48.058 44.468 47.892 43.002 47.892C36.107 47.892 30.501 52.695 30.501 58.573C30.501 64.45 36.107 69.254 43.002 69.254C49.896 69.254 54.84 64.699 54.84 58.739V17H47.431Z" fill="#FE2C55"/>
  <path d="M46 18H58.5C59.135 23.374 62.236 28.656 67.632 31.683C70.94 33.531 74.37 34.204 77.271 34.293V46.361C72.849 46.272 67.774 44.979 63.026 42.154V56.843C63.026 68.613 53.389 77.571 41.634 77.571C29.88 77.571 19.742 68.277 19.742 56.32C19.742 44.363 29.88 35.069 41.634 35.069C43.041 35.069 44.352 35.189 45.662 35.421V47.267C44.544 46.92 43.299 46.765 41.94 46.765C35.541 46.765 30.337 51.231 30.337 56.698C30.337 62.165 35.541 66.632 41.94 66.632C48.339 66.632 52.93 62.397 52.93 56.861V18H46Z" fill="white"/>
</svg>
