<svg xmlns="http://www.w3.org/2000/svg" viewBox="0 0 900 438"><path fill="#179d52" d="M83.5 38h51l2 2q1.25-2.25 2.5.5l-2 1-.5 6.5h-54L81 46.5l-.5-5.5-1 4-.5-4.5z" opacity=".996"/><path fill="#179d52" d="m66.5 40 4 1 1.5-.5-1.5 5.5q-11.97-.47-16.5 6.5l-5 12 1 1v28l1.5 2.5h114l3.5-2.5q1.75-6.25-1-8l1-3v-12l-1-2v-8l-4-9 .5-1.5h-4q-4.72-4.27-13.5-4.5l-.5-4.5-1.5.5q.75-2.25 4.5-1.5 1.75 2.75 8 1l12.5 8.5 4 7v4l.5 33.5 1-30 1 32h7l12.5 4.5.5 1.5h2l4.5 4.5 5 11-1 1-.5 139.5-.5-8.5-1-1 1-1v-8l-1-5 1-3-1-1v-9l-1.5-3.5-3 1-2.5-.5.5-1.5-2.5-.5q.75-4.75-2.5-5.5l-5-1-3.5 1.5 1 2-7 1 1 2-2 1-.5 1.5-4.5-.5-.5-1.5h-10l-1 1-4.5-1.5-.5-2.5-1 3q-1.5-2.5-3 1l-5-1 .5 1.5-.5 2.5-1.5-.5 1-2q-1-2.5-5.5-1.5l-1.5.5-1.5-3.5-1 2-3.5-.5.5-1.5-4.5 3.5.5 1.5-1.5-.5-1.5-3.5-1 2-3-1-2 1v-2l-3-2q-3.67 2-2 4l-3-2-5 1h-2l-1.5-.5 2-1-5-1-.5-4.5-1 4-1.5.5.5 1.5 1.5-.5-2 4 1 2q-2.5 1.5-1 7l.5 1.5-1.5-1.5v-23l5-27-.5-1.5 1.5.5-1-3h2l1-6-.5-1.5 1.5.5-1-3 2-1-1-3 2.5-4.5.5 8.5-1 4 1.5 2.5q10.75-4.25 16.5-13.5v-3l-3.5-6.5-2.5-1.5 1.5-.5 5 3 1.5-.5 2.5 3.5 1-1 3.5 3.5 1.5 3.5 5.5-9.5v-6l-2.5-4.5-1.5-.5-1.5-2.5-4-2-10-1-3 1 4-5 5.5-2.5 6-7-5.5-2.5h-6l-9.5 4.5-1.5 2.5-1.5.5-2.5 4.5-2.5-.5-1.5-2.5q-5.5-5-18-3l-4.5 2.5q-6.17 4.33-7 14 1.75 4.25 3.5 1.5l6-3h3l12.5 2.5-10.5 2.5-6.5 5.5q2.09 10.41 8.5 16.5.94-6.06 5-9l1.5-.5.5-1.5h2l2.5.5-3 2-17 33-6 20-2.5 16.5-2.5-.5 2-6q-1.25-2.75-2.5-.5l-2 1-5-2q-1.25 2.25-2.5-.5l.5-1.5 2.5-.5q.5-4-2.5-4.5l-2-1-.5 1.5q2.25 1.25-.5 2.5l-1-3-1.5.5q2.5 1.5-1 3l-.5 1.5-.5-1.5.5-1.5-4 1q-1.75-3.08-3.5-1.5l4-2-3.5-1.5-3 1-2-1q-.75 2.75-5 2l-1-3-2.5 1.5.5 1.5-3-4-4 2-7-5-2.5 1.5q2 3.67 4 2l-.5 2.5-1-1-2.5 1.5 1-3-1.5-.5-.5 2.5-.5 1.5-1.5-.5 1.5-2.5-2 1 .5-1.5-.5-1.5-1.5.5v-17l-1.5-2.5q-2.4 3.1-1.5 9.5l1 1v15L11.5 221 11 119.5l-1-1 2-1-1-3 5.5-9.5 1.5-.5.5-1.5 13-6q7.05 1.05 10.5-1.5l.5-2.5 1.5.5v-33l-1-2L51.5 46l9-5q4.75 1.25 6-1M14 179l-1 5h1zm87 19v7l1-2zm14 8-2 1v1h4zm3 0v1l7 3 2-1q-1-3-2-1zm-43 3-2 4 2 1zm83 3 1 4h1zm-35 2 2 2 2-1z" opacity=".996"/><path fill="#179d52" d="m42.5 82 .5 5.5h-1zM208.5 139l.5 9.5h-1zM208.5 154l.5 43.5h-1zM208.5 199l.5 59.5h-1zM96.5 209l.5 16.5h-1zM192.5 216l2.5 1.5-1.5.5zM155.5 218l7 2 1.5-.5-.5 1.5-5.5.5.5 1.5-2.5-1.5zM68.5 219l2 1 2-1 .5 1.5h-2l1 2-2 1v-2l-.5-1.5zM12.5 222l-.5 1.5-.5 12.5-.5-12.5zM74.5 225l.5 5.5h-1zM74.5 232l.5 3.5h-1zM75.5 241l.5 6.5h-1zM102.5 249l2.5 1.5-.5 1.5zM9.5 251l.5 7.5H9zM73.5 251l.5 3.5h-1zM74.5 257l1 3 1.5.5L88.5 273l17.5-.5.5-1.5 1.5 2.5-2.5 1.5-3-1h-16l-2.5-2.5-.5-1.5q-1.25 2.25-2.5-.5l-4.5-6.5-2.5-1.5zM206.5 259l.5 3.5h-1zM105.5 260l1.5.5-.5 2.5-1.5-.5zM208.5 260l.5 5.5h-1zM333.5 282l17 2q10.96 4.04 17.5 12.5l-1 1q5.42 2.75 3.5 5.5l1.5.5 1 3-1.5 3.5-2-5-1.5-.5q.83-5.83-2.5-7.5l-1.5-.5-.5-1.5-2 1v-1l1.5-.5-3.5-3.5-1 1-1.5-.5-.5-2.5-4-2-1 2-1-2-3.5-.5-.5-1.5-3.5 1.5-.5 1.5-1.5.5 2 3-3.5 1.5h-2l-1.5-.5.5-1.5 3.5-.5-1.5-3.5-3.5-.5 8-1-.5-1.5h-13l-2 2-2-1-1 2-2-1-4.5 2.5q2.25 1.25-.5 2.5l-3-1-5.5 4.5-8 14-1 17 1 3 1 8h-1q-3.67-8.33-2-22l1-5-.5-1.5 1.5-.5-1-2 2-1 1-2-.5-1.5 1.5-.5-1-1 3-3 5.5-6.5 12-6zM219.5 284l14.5.5v28l1.5 1.5h11l1-1q1.75 2.75 8 1h2q6.25 1.75 8-1h2l1.5-.5v-27l-1-1 14.5-.5.5 75.5-10.5.5v-1l9.5-.5v-39l-1.5-3.5-1.5.5 1-2-2-1 2-1v-2l.5-1.5 1.5-.5v-2q1.25-4.75-1-6l1-1v-12l-4-1-.5-1.5h-2l-4.5 1.5v9l1 1-2 1 2 3v2l-.5 9.5-1-10-.5 10.5 1.5 2.5-2-1-5 2h-4l-11-1-5 2-1-1h-8l-1.5-1.5-1-2-.5-25.5-5-2-2 2-2.5-.5-.5-1.5-1.5.5-.5 21.5-.5-21.5zM381.5 284l60.5.5-1 1-.5 10.5-18.5-.5 11-2-4-1 4.5-.5h2l2.5.5-3 1 4.5 1.5.5-9.5h-1l-.5 1.5-1.5-.5-.5-1.5-1.5.5-.5 1.5-4.5-.5-.5-1.5-1 2-1-2-1 2-2-1-2 1h-2l-4-1-3 1-2-1-1 1h-15l-1-1h-10l-1 2-1.5.5q-1.5 5.5 1 7l-1.5.5zM454.5 284l52.5.5-.5 11.5h-37l-2 1 1-2h25l1-1 1 1h9v-1l-13.5-1.5 14-1 1-4q-2.75-2.25-8.5-1.5l-1 1-38.5.5.5 2.5 6-2 2 1 3.5-.5-.5 1.5-8.5 1.5q2.25 1.25-.5 2.5l-2-1-1 5-1.5-.5v11l1 2-1 1v47l43 1-37.5 1.5-5-1-1.5-.5v-72l1-2zM523.5 284l13.5.5.5 63.5h2l36.5.5-1.5 2.5h-2l-10-1h-2l-4 1-1-1-18.5-.5-1-2v-30l-1-1 1-2-1-2 1-1v-24l-3.5-2.5-1 2-6.5-.5-.5-1.5-.5 3.5 2 1v5q-2.75.75-2 5l2 1-1 2 1 2-2 1 2 1-.5 9.5-1.5.5 1 5q-2.75 1.75-1 8h2l-.5 1.5-1.5.5 1 8-1 1v18l7 1-3.5 1.5-4.5-.5zM521.5 285l.5 27.5h-1zM379.5 287l.5 3.5h-1z" opacity=".996"/><path fill="#179d52" d="m235.5 288 .5 3.5h-1zM538.5 288l.5 4.5h-1zM351.5 290l3.5.5-3.5.5zM466.5 291l3.5 1.5-.5 1.5-2.5-.5zM472.5 291l1 1h12l2.5.5-8.5.5-1 1-7.5-1.5zM388.5 292l2 2q7.5-1.5 10.5 1.5l-16.5.5v-1l3-1 1.5.5zM417.5 296l.5 49.5h-1zM348.5 297l3.5 1.5-1.5.5zM538.5 297l.5 4.5h-1zM404.5 298l.5 12.5h-1zM419.5 298l.5 51.5h-1zM467.5 298l1.5 4.5v2l-1 3 1 4q-2.25 1.25.5 2.5 8.17-1.67 12 1l1-1h13l4 1 3-1h2l1.5.5-2 2-.5 10.5-3.5-.5 3-1-.5-9.5-3 1-5-1-2 1-2-1-3 1-3-1h-15l-1.5-1.5-1-2zM54.5 299h11l1 1q1.25-2.25 2.5.5l-.5 2.5-1-3-1 1h-13zM152.5 299l3 1 5-1 4 1 1.5-.5-1.5 2.5q-1.5-2.5-7-1h-2l-4.5-.5zM528.5 302l2.5.5 1 2-2 1 1 2-1.5.5zM538.5 306l.5 6.5h-1zM357.5 307l1 2 1.5.5v22l-7.5 13.5-4.5 2.5q2.25 1.25-.5 2.5l-1-2q-4.17 4.33-14 3l-6.5-1.5-1.5-2.5-1.5.5.5 1.5-4-6-2.5 1.5q4-2 0-4l-3.5-8.5-1.5-.5 1-4-1-1v-11h1v10l1.5 6.5 1-2 .5 1.5-1 3h2l-.5 1.5 1.5.5 1 2-.5 1.5 10 8q5.12 2.37 14 1l10.5-8.5 1.5-2.5 1.5-.5-1-2h2q4-8 2-22-3-2.5-1.5-6.5M220.5 308l.5 4.5h-1zM153.5 309l2.5.5-.5 1.5zM313.5 309l1.5.5-1.5 4.5-1.5-.5zM371.5 311l1.5.5-.5 3.5zM218.5 314l.5 6.5h-1zM521.5 314l.5 31.5h-1zM220.5 315l.5 24.5 1 2-1.5 4.5zM373.5 316l.5 8.5h-1zM297.5 317l.5 3.5h-1zM303.5 321l.5 1.5-2.5 1.5zM307.5 324l3.5 1.5-3.5 1.5zM255.5 325l6.5.5-6.5 1.5zM302.5 326l1.5.5-.5 4.5-1.5-.5zM373.5 326l.5 1.5-1.5 5.5-.5-4.5zM469.5 326l29.5.5-29.5.5-1 1zM243.5 328l17.5.5-17.5.5zM269.5 328l.5 32.5h-1zM233.5 329l.5 31.5-1.5-.5-9.5-.5 10-1q1.25-4.75-1-6l1-1zM467.5 329q2.75 1.25.5 2.5l1 11v2l1.5 3.5 38.5.5-.5 2.5-4-1-2 1-1-1h-11l-2 1-3-1h-11l-1 1-5.5-2.5-1-2zM538.5 330l.5 3.5h-1zM404.5 331l.5 4.5h-1zM371.5 335l.5 1.5-1.5 2.5-.5-1.5zM224.5 338l1 2 1.5.5-2.5 4.5-.5-3.5v-2zM303.5 342l2 3-1.5-.5zM368.5 342l.5 1.5-2 1-1.5 2.5.5-1.5zM220.5 347l1.5 12.5-1.5.5zM521.5 347l.5 5.5h-1zM417.5 350l.5 9.5-1.5.5.5-1.5zM310.5 351l2.5 1.5-1.5.5zM218.5 352l.5 8.5h-1zM507.5 352l.5 5.5h-1zM574.5 352l.5 2.5-2 4 1 2-1.5-.5-36 1-.5-1.5 3.5.5 2-1h30l1.5-1.5zM419.5 354l.5 6.5h-1zM316.5 356l4 1 1.5-.5-3.5 1.5zM404.5 357l1 2 2.5.5-.5 1.5-2-1-1.5.5zM326.5 360q8.19-1.69 11.5 1.5l-5.5.5q-1.25-2.25-6-1z" opacity=".996"/><path fill="#1e4689" d="m616.5 95 21 1q9.12 2.88 14.5 9.5l4 8 1 18-1.5 5.5-1.5.5 1 3-2 1 1 4-2 1 1 3-3.5 14.5-1.5.5 1 3-1.5 4.5-1.5.5 1 4-1.5 3.5-1.5.5 1 5-3 5 1 3-1.5 4.5-1.5.5 1 5-1.5 3.5-1.5.5 1 3q-3.5 1.5-1 3l-.5 1.5-1.5.5 1 4-2 1 1 3h-2l1 3h-2l.5 2.5 1.5.5-1.5 2.5-1.5-.5 1 3h-2l1 3h-1l-.5-1.5-.5 2.5.5 1.5-1.5-.5 1 2h-2l1 2-3 1 .5 1.5 1.5-.5-3 1 1 2-3 1-1 2 1 1-5.5 5.5h-2l-2.5 1.5.5 1.5-2-1-1 3-2-1v2l-2-1v2l-3-1v1l1.5.5-1.5.5-4-1v1l2.5.5-2.5.5-5-1v1l3.5.5-4.5.5-1-1h-11l-12-3v1l1.5.5-1.5.5-1-3-2 1v-2l-2 1-6.5-6.5 1-1-.5-1.5-1.5.5 1-2h-2l.5-1.5-1.5-.5-2-6 1-2-1-2 2-1-.5-1.5-1.5.5 2-15 4-13v-4l17-74q4.87-18.13 17.5-28.5l13-7zm1.5 21-3 1v2l-3-1q-3 1-1 3l-1-1q-5 2-2 4-1 2-2 0l-1 2v2l-2 1 1 2h-2l1 3h-2l1 3h-2l1 5h-2l1 4-2 1 1 3h-2l1 5-2 1 1 3-2 1 1 4h-1v2l-2 4 1 3-2 1 1 2-1 5q-4 1-1 3l-1 6-2 2 1 3-2 1 1 3-2 1 1 3h-2l1 5h-2l1 4h-2l1 4-2 1 1 4h-2l1 4h-2l1 4-2 1q0 6 3 11l6 4q10 1 14-4l4-7 2-1-1-2 2-1-1-1 2-9 2-1-1-2 13-55v-4l3-9 1-9 2-1-1-1 1-4v-2l1-8h-2l1-2h-1v-1q-1-3-2-1v-2l-2 1v-1zM833.5 95h16l8 2q7.39 2.11 11.5 7.5l4 6 2 7-1 2 1 3-2 6 1 5-1.5 4.5-1.5.5 1 3-2 1 1 4-2 1 1 2h-2l1 3h-2l1 2-2 1 .5 1.5-1.5.5.5 1.5-1.5.5.5 1.5-1.5.5.5 1.5-1.5-.5-1 2q2.25 1.25-.5 2.5l-4.5 3.5-2.5 3.5-2-1-1 3-1.5-.5-1 2q12.49 6.51 10 28l-1 5-2 3 1 3q-3.5 1.5-1 3l-1.5 6.5-1.5.5 1 3-2 1 1 3h-1l-.5-1.5-.5 2.5.5 1.5-1.5-.5 1 3-1.5 2.5-1.5-.5 1 2h-2l1 2-3 2 .5 1.5-1.5-.5-1 2q2.25 1.25-.5 2.5-1.75-2.75-3.5 1.5l-1.5 2.5-1.5.5q2.25 1.25-.5 2.5h-2l-1.5.5q2.25 1.25-.5 2.5l-2-1v2l-2-1v2l-2-1v2l-3-1v2l-4-1v1l2.5.5-2.5.5q-1.25-2.25-6-1l-1 1-17 1-6.5-2.5 2-1-2.5-.5-1.5.5.5-1.5-2 1-1-3-1.5.5.5 1.5q-12.82-8.18-10.5-31.5l4-18 2-2-1-2q4.25-16.75 15.5-26.5l8.5-5.5-5-5 .5-1.5-2.5-1.5q-3.87-7.62-2-21l7-26q5.56-11.94 15.5-19.5l11-6q6.33.83 9-2m2.5 21q-1 2 3 1v1l-6-1v2l-3-1q-3 1-1 3l-4 4h-2l1 2h-2l1 2h-2l1 2h-2l1 3h-2l1 4h-2l1 4h-2l1 4-2 1 1 3-2 3q0 9 7 13 8 2 12-1l8-9 4-14v-2l1-6 2-1-1-1 1-8h-2l1-2h-1q-4-2-2-4l-2 1v-1zm-19 73v2l-2-1-1 2-1-1-2 3-3 2q-3 1-1 3h-1v2h-2l1 2h-1v2l-2 1 1 3h-2l1 4h-2l1 4-2 1 1 4h-2l1 5-2 1 2 13 5 3 4 1q8 0 12-4l5-7 3-9 1-8q3-2 1-3l2-8v-11l-1-1q-4-2-2-4l-3 1v-2l-4 1zm-23 77v1h4zM232.5 97l3 1 3-1 1 1h15l3-1 .5 1.5-1 1-.5 10.5-1-2-.5 5.5 1 2v7q-3 1-2 6 2.25 1.25 1 6-2.75.75-2 5l2 1-1 7-2 4 2 1-3 26v2l-2 31-2 8 1 3h-2l1.5 4.5 2.5-3.5v-2q6.53-23.47 16-44v-3L295.5 97h2l19 1 2-1 .5 1.5h-2l1 3h-2l1 2q-3.5 1.5-1 3l-.5 1.5-1.5-.5 1 2h-2l1 3-2.5 5.5-1.5-.5 1 3-2.5 5.5-1.5-.5 1 2-2 1 1 2-1.5 3.5-1.5-.5 1 3-1.5 2.5-1.5-.5 1 3h-2l1 3-1.5 2.5-1.5-.5 1 2-2 1 1 2-2 1 1 2-1.5 2.5-1.5.5 1 2h-2l1 3h-2l1 2-2 1 1 2h-2l1 3-2 1 .5 1.5-1.5.5 1 2h-2l1 2-2.5 6.5-1.5.5 1 2h-2l1 2h-2l1 3h-2l1 3-3.5 7.5-1.5.5 1 2-1.5 2.5-1.5.5 1 3-3 2 1 3-1.5 2.5-1.5-.5 1 3h-2l1 2h-2l1 2h-2l1 3-2 1 1 2h-2l1 3h-2l1 3h-1l-.5-1.5-.5 2.5.5 1.5-1.5-.5 1 2h-2l1 3-2 1 1 2h-2l1 2-2 1 1 2h-2l1 2-2 1 1 2h-2l1 3h-2l1 2-2 1-.5 1.5-2 1-1-1-31.5-.5q2.67-3.83 1-12l1-1-1-3 1-1v-10l1-1v-15l1-1v-14l1-1v-14l1-1v-14l1-1-1-2 1-1v-14l1-2v-2l2-38q2.8-1.7 2-7l-1-1v-8zM329.5 97l2 1q1.75-2.75 8-1h2l4 1 4-1 3 1 2-1q2.75 1.25.5 2.5l-.5 2.5-1-3-.5 3.5 1 3h-2l1 4h-2l1 5h-2l1 4h-2l1 4q-3.5 1.5-1 3l-.5 2.5-1.5-.5 1 4-2 1 1 5-1.5 3.5-1.5-.5 1 5h-2l1 4-2 1 1 3-2 1 1 3q-3.5 1.5-1 3l-.5 2.5-1.5.5 1 4-2 1 1 3-2 1 1 3-3 6 1 4-1.5 3.5-1.5.5 1 3-2 1 1 4h-2l1 5-2.5 8.5-1.5.5 1 4-2 1 1 4-2 1 1 2h-2l1 7v2l-1 5 4.5 6.5 10 1 9.5-7.5 6-17 5-27 2-4v-4l12-49v-2l3.5-15.5 1.5-.5-1-4 3.5-13.5 1.5-.5-1-3 2.5-.5q1.5 2.5 7 1l2-1 2 1 2-1 3 1 3-1 2 1 2-1 .5 2.5-1.5 3.5-1.5.5 1 4-2 1 1 3-2 10-2 2 .5 1.5-1.5-.5 1 5-2 1 1 3-2 1 1 5-2 1 1 2q-3.5 1.5-1 3l-3 11v6l-2 2-1 9-2 2 1 2-1.5 5.5-1.5.5 1 3q-3.5 1.5-1 3l-.5 1.5-1.5.5 1 4-2 1 1 3-2 1 2 1-1.5 3.5-1.5.5 1 3h-2l1 6-3.5 11.5-1.5-.5 1 5h-2l1 3h-2l1 2h-2l1 4-3 1-2 5 .5 1.5-1.5-.5 1 2-3 1 1 2-7 5q2.25 1.25-.5 2.5h-2l-1.5.5q2.25 1.25-.5 2.5l-2-1v2l-2-1-1 3-4-1v1l1.5.5-1.5.5-3-1v1l1.5.5-1.5.5q-1.25-2.25-6-1v1l4.5.5-4.5.5-1-1h-11l-1 2-9.5-2.5 2.5-.5q1.5 2.5 7 1v-1l-10-1h-2l-4.5-2.5-.5-1.5-1 1-3.5-3.5 1-2-2-1-.5 1.5-.5-1.5 1-2h-2l.5-1.5-1.5-.5-1-6 .5-1.5-1.5-.5v-9l1.5-6.5 1.5.5-1-6 7-25 4-23 2-4v-4l4-13 2-14 8.5-34.5 1.5-.5-1-3zM424.5 97l3 1 7-1 5 1 5-1h2l2 1 3-1 2 1h2l4-1 2 1h2l2-1q1.25 2.25 6 1l5-1 1 1h15l2-1 .5 3.5h-2l1 4-2 1 1 3-2 1 1 3-2 1 1 6-1.5.5-1-1h-24l-20.5.5.5 1.5-1.5-.5 1 4-2 1 1 4h-2l.5 1.5 1.5.5-2 3-1 11-5 16v5l27.5.5 1 1q1.25-2.25 6-1l-.5 1.5-.5 4.5-1.5.5 1 3q-3.5 1.5-1 3l-2 4 1 3-2 1-1 2 .5 1.5h-34l-2.5 2.5 1 2-2 1 1 4-2 1 1 4-2 1 1 3-1.5 5.5-1.5-.5 1 4-1.5 5.5-1.5.5 1 3h-1l-.5-1.5-.5 3.5 1 3h-1l-.5-1.5-.5 2.5 1 4-2 4 1.5 1.5 43.5.5-.5 1.5-1.5.5 1 3h-2l1 5-2 1 1 4h-2l1 4-2 1 1 2-1.5-.5h-53l-1-1-3 1-2-1-3 1-4-1-1 2-3.5-.5 4-12 1-10 2-4 3-16 2-2-1-2 16-68v-5l3-8v-4l6-23 1-10zM507.5 97l3 1 2-1 3 1 4-1 2 1 3-1 2 1 5-1 1.5.5q-3.5 1.5-1 3l-.5 2.5-1.5.5 1 5-1.5 4.5-1.5-.5 1 4h-2l1 5-2 1 1 2-2 1 1 4-2 1 1 4h-2l1 5h-2l1 4-3 13-2 2 1 3h-2l1 4-5.5 22.5-1.5.5 1 3-2.5 9.5-1.5.5 1 4h-2l1 4-2 1 1 3-2 1 1 4-2 1 1 4-1.5 3.5-1.5.5 1 5h-1l-.5-1.5-.5 2.5 1 2h-2l1 5-1 2 43 1v2l-1.5 5.5-1.5.5 1 4h-2l1 5-2 1 1 3-2.5.5-4-1-1 1h-34l-1-1h-16l-2 1q-1.25-2.25-6-1l-1 2-1-2-1 2-.5-3.5 4-13v-5l5-17 1-9 2-4v-4l21.5-94.5 1.5-.5-1-3q3.08-5.42 3-14zM717.5 97l3 1 1-1h18l2 1 1-1h44l5 1 3-1v1l-1.5.5 1 6-1.5 3.5-1.5-.5 1 5h-2l1 4-1.5 3.5-1.5-.5 1 2h-2l1 2h-2l1 2h-2l1 2h-2l1 2h-2l1 2h-2l1 3-3 1 1 2-2 1 .5 1.5-1.5.5.5 1.5-1.5.5.5 1.5-1.5.5.5 1.5-1.5-.5 1 2-2 1 .5 1.5-1.5.5.5 1.5-1.5.5 1 2-3 2 .5 1.5-1.5.5.5 1.5-1.5.5.5 1.5-1.5.5.5 1.5-1.5.5.5 1.5-1.5.5.5 1.5-1.5.5.5 1.5-1.5.5.5 1.5-1.5.5.5 1.5-1.5.5.5 1.5-1.5.5.5 1.5-1.5.5 1 2-2 1 .5 1.5-1.5-.5-1 2v2l-.5 1.5-1.5.5 1 2-3 2 .5 1.5-1.5.5.5 1.5-1.5.5-1 2 1 2-1.5 2.5-1.5-.5-2 4 .5 1.5-1.5.5.5 1.5-1.5.5.5 1.5-1.5.5.5 1.5-1.5.5-1 3v2l-1.5 3.5-1.5-.5-3 7 .5 1.5-1.5-.5 1 2h-2l1 2h-2l1 2h-2l1 2-2 1 .5 1.5-1.5-.5 1 2h-2l1 2h-2l1 2h-2l1 2h-2l1 2h-2l1 2h-2l1 2h-2l1 2h-2l1 2h-2l1 2h-2l1 2h-2l1 2h-2l-.5 1.5-7-2-3 1-1-1h-11l-1 2-2.5-.5 74-146-7.5-.5h-18l-1-1-1 1h-24l-.5-2.5 2-5 2-13z" opacity=".984"/><path fill="#1e4689" d="M576.5 267q3.75-.75 4.5 1.5l-1.5-.5q-4 .75-3-1M812.5 267l3.5.5-3.5.5zM328.5 268l7.5.5-7.5.5z" opacity=".984"/><path fill="#f8fdfb" d="m82.5 35 5.5.5-6.5 1.5zM93.5 35l12.5.5-12.5.5zM112.5 35l3.5.5-3.5.5zM146.5 38l4.5.5-4.5.5zM139.5 39l1.5 4.5v2l-.5 1.5q-3.36-1.86-1-8M78.5 47l1.5 2.5-2-1zM47.5 48 46 50.5l-.5 1.5-.5-1.5zM64.5 49l1.5.5-3.5 1.5v-1zM151.5 49l3.5 1.5-1.5.5zM83.5 51l52.5.5-3.5 1.5-2-1h-47zM159.5 52l5.5 7.5h-1zM175.5 58q2.25.75 1.5 4.5h-1zM41.5 59l.5 3.5h-1zM52.5 62l.5 3.5h-1zM39.5 66l1.5.5-.5 3.5zM52.5 81l.5 11.5h-1zM40.5 82l.5 6.5h-1zM63.5 93l5.5.5-5.5.5zM72.5 93l3.5.5-3.5.5zM92.5 93l3.5.5-3.5.5zM110.5 93l5.5.5-5.5.5zM126.5 93l5.5.5-5.5.5zM136.5 93l6.5.5-6.5.5zM147.5 93l7.5.5-7.5.5zM180.5 94l5.5.5-5.5.5zM747.5 95l4.5.5-4.5.5zM774.5 95l3.5.5-3.5.5zM229.5 108l.5 9.5h-1zM124.5 118l6.5.5-1.5 2.5-1.5-.5.5-1.5q-5 1-4-1M657.5 118l.5 4.5h-1zM8.5 119l.5 6.5H8zM615.5 119q9.38-1.87 12.5 2.5l1 4-2.5 1.5-1.5-2.5 2-3q-3.31-3.19-11.5-1.5zM832.5 119l2.5.5-6.5 3.5 2-3zM119.5 120v2l6.5 1.5-4 1-2.5 3.5-2.5 1.5-.5 1.5-2.5-.5.5-2.5 2 1q3.25-1.75-.5-3.5l-1-2 1.5.5 1.5-.5q-2.75-1.75 1.5-3.5M612.5 120l1.5.5-2.5 1.5zM609.5 122l3.5 1.5-1 3 1 2-2.5 4.5-1.5.5v2l-.5 1.5-4 1-1.5-.5.5 2.5 1.5-.5-.5 1.5-2.5-1.5 3.5-11.5.5 1.5-1 2 1.5-.5 2.5-1.5-.5-1.5-2.5-1.5 1.5.5 2.5-.5-.5-1.5-1.5-.5zM91.5 123l3.5.5-3.5.5zM96.5 124l3.5.5-5.5 1.5v-1zM209.5 124l.5 4.5h-1z" opacity=".984"/><path fill="#f8fdfb" d="m614.5 124 8.5.5-.5 1.5-8-1zM826.5 124l-1.5 2.5 1.5 1.5 5-1 .5 1.5-2 1-.5 1.5-1.5.5v2l-.5 1.5-3.5.5-.5 1.5-.5-1.5q2.25-1.25-.5-2.5l-1 3-.5-2.5zm-1.5 4v2l-2 1 1 1h3l-1-3zM846.5 124l.5 9.5-1.5 5.5-1.5-3.5 2-2zM88.5 126l3.5 1.5-.5 1.5-3.5-1.5zM98.5 126l3.5 2.5-2.5.5-4 1v-1l3.5-1.5zM85.5 127l1 3 2-1 5.5 1.5q-1.75 2.25-6.5 1.5l-2.5-1.5zM843.5 127l1.5 2.5-3.5.5v-1l1.5-.5zM111.5 130l1 2q3.75-.75 4.5 1.5l-1 2 2.5 1.5 1-2 11.5 2.5.5 2.5 4.5.5-.5 1.5-2.5.5 2.5 1.5 2-2q1.75 3.08 3.5 1.5l-.5 3.5-1-2-3 4-2.5-.5 3-2-3.5-.5-2.5 1.5 1-2-1.5-.5-2 1-2.5-1.5 1.5-.5h2l2.5-.5-3.5-2.5q-1.25 2.25-2.5-.5l1-3-2.5-.5-8 2-2-1-1.5.5.5-1.5 1.5-.5-6.5-3.5-.5 2.5 4 2-.5 4.5-3.5-.5 1.5-2.5-3.5-.5-1-6 1.5-.5h2l2.5-.5zM209.5 131l.5 5.5h-1zM612.5 131q2.75 1.25.5 2.5l.5 2.5 2.5.5-2.5.5q-2.9-1.4-1-6M628.5 131l.5 4.5-4.5 18.5-.5-4.5zM82.5 133l2.5 1.5-2.5 1.5zM97.5 133l1.5.5-.5 2.5-3.5-1.5zM100.5 133l2.5 1.5-.5 1.5-1.5-.5z" opacity=".984"/><path fill="#f8fdfb" d="m122.5 134 6.5.5-6.5.5zM620.5 135l1 2-2.5-.5zM134.5 136l3.5 2.5-2.5-1.5zM827.5 136l2.5.5-.5 1.5zM8.5 137l.5 3.5H8zM820.5 137l.5 3.5-1.5 4.5-.5-3.5zM209.5 139l.5 14.5h-1zM844.5 140l.5 3.5-1.5 4.5-.5-3.5zM100.5 141l5.5.5 6 8 1 8h-1q.7-7.7-3.5-10.5l-4-1-4 1q-3-1.5 0-3l2 1 2.5-1.5q-.75-2.25-4.5-1.5zM601.5 141l.5 3.5-2 7 1.5.5 1-2 6.5 1.5-1.5 1.5q-6.75-1.75-8.5 1.5l2 4-1.5.5-1.5-.5-1.5 7.5-.5-2.5zM118.5 142l1.5.5-2.5 1.5zM607.5 143l2.5.5-.5 1.5zM613.5 143l2.5.5-2.5 1.5zM617.5 143l2 1 3-1q3 1.5 0 3-4.98-.15-5-3M112.5 145l4.5.5-4.5.5zM88.5 146l1.5.5.5 3.5 5.5-2.5-.5-1.5 1.5.5 1.5 2.5 1.5-.5-.5 1.5-3-1-4.5 3.5 1.5 2.5-2.5-.5-1.5-3.5-1.5-.5-1-3z" opacity=".984"/><path fill="#f8fdfb" d="m602.5 146 1.5 2.5-2-1zM818.5 146l.5 3.5-1 1-.5 8.5-.5-8.5zM117.5 148l1.5.5-2 1-.5 1.5-.5-1.5zM842.5 149l.5 1.5-3.5 6.5.5-1.5-1-2h2zM620.5 151l2.5.5-.5 1.5-2.5-.5zM117.5 152q3.75-.75 4.5 1.5l-5.5.5zM619.5 154l1 2-2.5-.5zM209.5 155l.5 18.5h-1zM603.5 155l.5 2.5-1 3 1.5 2.5 3-1 1.5 2.5-1.5-.5-3 1-2-1-1.5.5 1-3-2-1 2-1q-.75-3.75 1.5-4.5M623.5 155l.5 2.5-2.5 9.5-1.5-4.5h2zM868.5 155l.5 1.5-2 1zM114.5 156l2 1q1.25-2.25 6-1l.5 1.5-5 3-1.5 2.5-2.5-1.5.5-1.5 2.5-.5-3-1zM616.5 159l4.5.5-4.5.5zM742.5 160l-.5 1.5-1.5 2.5.5-1.5zM818.5 160l2 3 3 1 5-1 2 1 2-1v1q-3.17 2.33-10 1l-4.5-3.5zM112.5 161l1.5 3.5-2 1zM865.5 161l-.5 1.5-1.5 2.5.5-1.5zM295.5 162l.5 1.5-2 1zM103.5 163l1.5.5-.5 2.5zM100.5 166l2.5.5-2.5 1.5zM599.5 166l4.5.5-.5 1.5-4.5-.5zM609.5 166h8l1.5 1.5-1.5.5h-2l-5-1-1.5.5zM595.5 167l.5 3.5h-1zM620.5 168l.5 3.5-1.5 4.5-.5-3.5zM99.5 169l1.5 2.5-1.5 2.5q-1.25-2.25-2.5.5l3 1-2 1-1 5 1 2q-1 2.5-5.5 1.5l-.5-2.5 1.5-3.5 1.5-.5v-3zM599.5 169h2l2.5 1.5-1 7 2 1-2.5 1.5-1-2-1 2-2-1-3 1-.5-1.5 4-1-.5-1.5-2.5-.5 1.5-4.5 1.5-.5zm.5 2-2 2 1 2h1zM615.5 170l2.5.5q1 4.5-1.5 5.5l-3.5-1.5z" opacity=".984"/><path fill="#f8fdfb" d="m594.5 172 .5 3.5-2 8 .5 1.5-1.5.5.5 1.5 5-1v1l-5.5 2.5 4.5.5 2-1 .5 2.5-1.5.5-3.5-.5 1.5 2.5h2l3-1 1 2-4 1-3-1-3 1-1.5-.5-.5 1.5-.5-3.5zM605.5 174l3.5 1.5-1.5.5-2.5-.5zM209.5 175l.5 50.5 1 2-1 3q-1.75 6.25 1 8l-1.5 4.5zM616.5 177l.5 1.5-4.5 1.5-6.5-1.5 9.5-.5z" opacity=".984"/><path fill="#f8fdfb" d="m618.5 177 .5 2.5-8.5 35.5-1-4-4-1h-2l-2.5-.5 3.5-1.5 5.5 1.5.5 1.5 1.5-8.5-1-4h1l.5 3.5 3.5-16.5-2-1-.5-1.5-1.5.5-.5 1.5-1-2-2 1-.5-2.5 1.5-.5h2l3.5 1.5.5 1.5 1.5-.5v-2zM761.5 178l.5 1.5-2.5 3.5.5-1.5zM600.5 181l2.5.5-1.5 2.5-2.5-1.5zM90.5 186l6.5.5 1 5h-1l-.5-2.5q-4.5-1-5.5 1.5l2.5.5q1.25-2.25 2.5.5l-7.5 1.5-.5-1.5 4-3-.5-1.5-1.5.5zM286.5 186l.5 1.5-2 1zM600.5 188l3.5 1.5-.5 1.5-2.5-.5 2-1q-3.33.08-2.5-1.5M756.5 188l.5 1.5-2 1zM816.5 191l8.5.5-10.5 1.5v-1zM826.5 192l3.5 2.5h-3l.5-1.5z" opacity=".984"/><path fill="#f8fdfb" d="m609.5 193 3.5.5-.5 1.5-3-1-2 1v-1zM812.5 193l-2 5-2.5-.5zM89.5 194l4 1 1.5-.5-2.5 6.5-5.5-.5.5-1.5 5.5-2.5-.5-1.5-4 1zM830.5 196l.5 10.5-2.5 9.5-.5-4.5q3.41-5.59 2.5-15.5M588.5 198l5.5.5.5 1.5q1.5-3.5 8-2l2.5.5-1 3 .5 1.5-2.5-.5 1-3-3.5-.5-3.5 1.5 5 1-1.5 2.5-5-1-2 1-4-2-1 4-.5-3.5zm1.5 1-1 2h3v-1zM807.5 199l-.5 1.5-.5 1.5-.5-1.5z" opacity=".984"/><path fill="#f8fdfb" d="m85.5 200 1 2 6.5.5-.5 2.5-2.5.5 3 1-.5 2.5-1.5-.5 2 7-1 2q2.25 1.25-.5 2.5l-3-1-3.5 1.5 3.5 1.5 2-1 3.5 1.5-4.5 2.5-1-2-8 1q-2.25-1.75-1.5-6.5h1l.5 2.5 1-3 6.5-.5-5-1 .5-1.5 7.5-.5-2.5-1.5-3 1-2.5-1.5 2.5-2.5q1.5 3.5 3 1l1.5-.5-.5-1.5h-2l-3.5-1.5 2-1-2-3zM607.5 200l1.5 2.5-1.5.5zM95.5 202l.5 2.5-.5 4.5-1.5-5.5zM805.5 203l2.5 4.5-2-1-.5-1.5-1.5 4.5 1.5-.5q6-1.5 7.5 1.5l-2.5.5-2.5.5-1 4 1.5 5.5 1.5.5-1.5.5q-2.6-1.4-2-6l-2.5-.5-.5-3.5-1 3-.5-2.5zM606.5 204l2.5 1.5q-.75 2.25-4.5 1.5l-1-2zM592.5 205l6.5 1.5-6.5 1.5h-2l-2.5-.5z" opacity=".984"/><path fill="#f8fdfb" d="m586.5 207 1 3q3.5-2.5 11-1l.5 1.5-5 1 6 3-6 1 .5 1.5 4-1q3 1.5 0 3l-12.5-.5-.5-2.5-1 3-.5-3.5zm.5 4-1 4h2l1 1z" opacity=".984"/><path fill="#f8fdfb" d="m603.5 212 2.5.5-.5 2.5-2.5.5.5 1.5 4.5.5-6.5 1.5-.5-5.5zM801.5 216l.5 3.5h-1zM827.5 217l.5 3.5h-1zM585.5 220l13.5.5-1.5 2.5-7-1-4 1zM608.5 220l.5 3.5-3.5 9.5-2-1-1 2-2-1-1 2-1-2-2 1v-1l1.5-.5 3.5-8.5.5 2.5-1 4 2.5.5 2.5-.5zM800.5 221l1 4 1.5.5-.5 1.5-2-1-.5 5.5 1 2-2.5 1.5-.5-1.5zM78.5 223l.5 3.5h-1zM582.5 224l.5 4.5q-2.75 1.75-1 8l1.5 3.5q1.25-2.25 2.5.5l-.5 1.5 2.5-.5-1-2 2 1-1.5 2.5q-5 .5-5.5-3.5l-1-11zM590.5 224l2.5.5-.5 1.5-2.5-.5zM818.5 224l4.5 1.5-.5 1.5-3.5-.5zM91.5 225l1.5 2.5-2-1zM83.5 226l4.5.5q-1.25 2.75-2.5.5-3 .5-2-1M806.5 226v2l2.5 1.5q-2.25 1.25-1 6 2.25 1.25-.5 2.5l-3.5-.5 1-5-1-5zM825.5 226l.5 2.5-5.5 9.5h-2l-2.5-.5.5-1.5 2 1 2.5-.5zM8.5 227l.5 8.5H8zM95.5 227l.5 4.5-1.5 2.5-1.5-.5q3.05-1.45 2.5-6.5" opacity=".984"/><path fill="#f8fdfb" d="m591.5 227 3 2 1.5-.5-2 3 1 2-1.5.5-.5-3.5.5-1.5-1.5.5-1 3 1 2-3.5-.5-5.5-.5.5-1.5 2.5-.5q-3.75-1.75-.5-3.5l3.5 1.5-2 1 1.5 2.5zM88.5 229l2.5 1.5-.5 1.5-3.5-1.5zM77.5 233l.5 3.5h-1zM604.5 234l.5 1.5-3.5 4.5-1-2-3-1-.5 2.5 3 1q-3.21 3.79-10.5 3.5v-1l2.5-.5-2-1-.5-3.5-5.5-.5.5-1.5q5.12-.63 6.5 2.5l1.5 2.5 1.5-.5.5 1.5 2.5-.5-2.5-4.5-3.5-.5 7.5-.5 2 1 1-2 2 1zM83.5 236l9.5 1.5-.5 1.5-9-1-4 1v-1l3.5-.5zM96.5 236l.5 3.5h-1zM799.5 236l3.5 1.5-3.5 1.5zM816.5 239q3 1.5 0 3l-2 1h-11l-3.5-2.5 2.5-.5 1.5.5-.5 1.5 1.5-.5.5-1.5 1.5.5.5 1.5 2-1 5 1zM88.5 241l3 1 1.5-.5q-.75 2.25-4.5 1.5zM629.5 243l.5 1.5-2 1zM90.5 244l1.5 2.5-2-1zM78.5 245l5.5.5-5.5.5zM209.5 245l.5 6.5h-1zM8.5 251l.5 11.5H8zM94.5 252l1.5.5-.5 1.5-2.5-.5zM209.5 253l.5 14.5h-1zM100.5 255l1.5 6.5h-1zM360.5 259l1.5.5-2.5 1.5zM83.5 264l3.5 1.5-3.5 1.5q-3-1.5 0-3M206.5 276l.5 1.5-3 2zM405.5 280l4.5 1.5-5.5.5zM390.5 281l5.5.5-5.5.5zM412.5 281l16.5.5-16.5.5zM457.5 281l7.5.5-7.5.5zM526.5 281l6.5.5-6.5.5zM520.5 283l.5 14.5h-1zM285.5 284l.5 15.5h-1zM317.5 284l.5 1.5q-7.62 2.38-11.5 8.5l7-8zM378.5 284l.5 3.5h-1zM509.5 284l.5 13.5h-1zM217.5 288l.5 11.5h-1zM24.5 289l2.5 1.5-1.5.5zM378.5 289l.5 6.5h-1zM265.5 290l.5 5.5h-1zM29.5 291l6.5 1.5-5.5.5zM183.5 292l3.5.5-3.5.5zM160.5 297l3.5.5-3.5.5zM330.5 298q3.75-.75 4.5 1.5l-2.5.5zM338.5 298q4.75-.75 6.5 1.5l-1.5.5-2-1-3 1zM399.5 299l2.5.5-1 2 1 1v18h-1v-18zM301.5 300l-.5 1.5-1.5 3.5-.5-1.5zM330.5 301l1.5 2.5-2.5 1.5-1.5-.5-.5 2.5-5 1-1-3-1.5.5 1.5-1.5 3 3 1.5-1.5-.5-1.5-2.5-1.5 2.5-.5zM471.5 301l.5 5.5h-1zM333.5 303q3 .5 2.5 4.5l-1.5.5zM421.5 303l.5 1.5-1.5 3.5-.5-3.5zM69.5 304l.5 4.5h-1zM236.5 306l.5 5.5h-1zM265.5 306l.5 2.5-.5 1.5-1.5-2.5zM285.5 306l.5 21.5h-1zM298.5 306l.5 1.5-1.5 3.5-.5-2.5zM342.5 306l2.5 1.5 1 3-5.5.5.5-1.5zM347.5 306l2.5.5v2l2 3-2.5-1.5-1.5-.5zM352.5 306l1.5 2.5h-1l-.5-1.5-1.5.5zM539.5 306l.5 6.5h-1zM520.5 309l.5 4.5h-1zM328.5 310l2.5 1.5-.5 1.5zM420.5 310l1.5 2.5h-1zM471.5 311l1 1 16.5.5-16.5.5zM319.5 312l1 2 3.5.5-2.5 1.5-2-1-1.5.5zM492.5 312l13.5.5-13.5.5zM296.5 313l.5 6.5h-1zM338.5 313l2 1 2-1v1l-7 2-3-1-2 1-.5-1.5zM347.5 313l1.5.5-1.5 2.5zM55.5 314l5.5 1.5-4.5.5zM64.5 314l-1 2-1.5-.5zM153.5 314q1.75 2.75 8 1l1.5-.5q-1.75 3.25-8.5 1.5z" opacity=".984"/><path fill="#f8fdfb" d="m327.5 314 1.5.5.5 2.5 4 1 3-1 12 1 2-1-.5 1.5-.5 1.5-3-1-1 1h-9l-1.5 1.5 4 1q-1.25 2.75-2.5.5l-4 1q-2-4-4 0l-2.5-2.5 3-1-4.5-1.5-5 1h-2l-1.5-.5.5-4.5 1 2 6 1 1-2 2 1zm4.5 6v2l2-1zM376.5 315l.5 14.5h-1zM614.5 316l4.5.5-4.5.5zM654.5 316l4.5.5-4.5.5zM703.5 316l5.5.5-5.5.5zM743.5 316l3.5.5-3.5.5zM696.5 317l1.5.5-2.5 1.5zM217.5 321l.5 7.5h-1z" opacity=".984"/><path fill="#f8fdfb" d="m322.5 321 1.5 2.5-3 1 .5 1.5 8-1 2 1 3-1 .5 1.5q-2-1.67-4 2l5 1-3 1 1.5 2.5 4-1 2 1 2.5-.5.5-5.5 1.5.5 1 6-3.5 1.5-2.5.5-.5 1.5-1-3-3 1-2-1-4 1-2.5-1.5.5-1.5h2l1.5-.5-4.5-.5q-1.5 2.5-3-1l-4 1-.5-2.5 1.5-.5 5 1 .5-1.5-1.5.5-5.5-1.5 1.5-4.5zM344.5 321l1.5 4.5-1.5.5zM346.5 321l2.5.5-.5 1.5zM451.5 321l.5 5.5h-1zM421.5 322l.5 7.5v2l-.5 18.5-1.5-25.5zM401.5 323l.5 38.5h-1v-19l-1-1 1-1zM350.5 325l4.5.5-.5 1.5h-2zM539.5 326l.5 7.5h-1zM451.5 328l.5 3.5h-1zM237.5 329l26.5.5-26.5.5zM285.5 329l1.5 6.5-1 1v27l-1.5 1.5-.5-1.5 1-1zM346.5 329l8.5.5q-1 2.5-5.5 1.5l-3-1zM217.5 330l.5 17.5h-1zM471.5 330l.5 4.5h-1zM487.5 330l7.5.5-7.5.5zM500.5 330l5.5.5-5.5.5zM236.5 331l.5 3.5h-1zM265.5 331l.5 8.5h-1zM375.5 331l.5 3.5h-1z" opacity=".984"/><path fill="#f8fdfb" d="M320.5 332h2l3.5 1.5-3 2q1.5 3 7.5 1.5l1.5-.5-.5 1.5-7 1-3.5-1.5zM347.5 332l2.5.5-1 4 2 1-1.5.5-2-1-3 2-3.5-1.5 2.5-1.5 3 1 1.5-2.5zM352.5 332l.5 3.5-2-1zM297.5 334l2.5 7.5h-1zM236.5 336l.5 4.5h-1zM373.5 339l.5 2.5-3.5 4.5 1.5-2.5zM321.5 340h2l2.5.5-.5 1.5-2-1q-1.75 2.5-2-1M327.5 340l8.5.5 1 4h-1l-1.5-2.5h-2l-5 1zM337.5 340q4.5-1 5.5 1.5l-1.5-.5-3 1zM451.5 340l.5 6.5h-1zM265.5 341l.5 8.5h-1zM236.5 343l.5 19.5h-1zM520.5 344l.5 16.5h-1zM471.5 346l26.5.5-26.5.5zM541.5 346l7.5.5-7.5.5zM555.5 346l7.5.5-7.5.5zM569.5 346l5.5.5-5.5.5zM724.5 348l2.5 1.5-1.5.5zM451.5 350l.5 4.5h-1zM729.5 350l2.5 1.5-1.5.5zM421.5 351l.5 4.5h-1zM510.5 353l.5 5.5h-1zM577.5 353l.5 3.5h-1zM217.5 354l.5 5.5h-1zM265.5 356l.5 4.5h-1zM576.5 359l.5 3.5h-1zM321.5 362l9.5 2.5-4.5.5-3-1-1.5.5zM350.5 362l1.5.5-2 1-.5 1.5-2.5-1.5zM227.5 363l3.5.5-3.5 1.5zM272.5 363l9.5.5-9.5.5zM405.5 363l12.5.5-12.5.5zM457.5 363l5.5.5-5.5.5zM467.5 363l5.5.5-5.5.5zM474.5 363l8.5.5-8.5.5zM492.5 363l14.5.5-14.5.5zM528.5 363l7.5.5-7.5.5zM539.5 363l15.5.5-15.5.5zM570.5 363l4.5.5-4.5.5zM342.5 364l3.5.5-3.5.5z" opacity=".984"/><path fill="#969f8f" d="M82.5 37h54l2.5 2.5-2.5.5-2-2h-51l-2 2-2.5-.5zM146.5 39l8.5 1.5-4.5.5-4-1-1.5.5zM62.5 40l3.5.5-3.5.5zM158.5 41l7.5 4.5-1.5.5q-5.25-1.75-6-5M67.5 48l4.5.5-4.5.5zM87.5 50l44.5.5-44.5.5zM615.5 94h18l3.5 1.5-6.5.5-1-1h-13l-5 1v-1zM837.5 94l11.5.5-11.5.5zM850.5 94l11.5 4.5-1.5.5-3-2-7.5-1.5zM35.5 95l6.5.5q-3.45 2.55-10.5 1.5l-12 6 1-2 4-3zM51.5 95l114.5.5-114.5.5zM176.5 95l6.5.5-6.5.5zM828.5 95l4.5.5-7.5 1.5v-1zM184.5 96h3l7.5 3.5-1.5-.5-9-2zM231.5 96l26.5.5-3.5 1.5h-15l-2-1-2 1-3.5-.5-.5 1.5zM295.5 96l24.5.5-.5 1.5-2-1-1 1h-8l-1-1h-10l-3.5.5zM329.5 96l3.5.5q-1.25 2.75-2.5.5zM343.5 96l2.5.5-.5 1.5-2.5-.5zM349.5 96l6.5.5-.5 1.5-2-1-3 1zM382.5 96l9.5.5-.5 1.5q-7.5 1-9-2M393.5 96l14.5.5-3.5 1.5-3-1-3 1-2-1-2 1zM423.5 96l25.5.5-.5 1.5-2-1h-2l-9 1-3-1-5 1-3.5-.5-.5 1.5zM455.5 96l40.5.5-.5 2.5-1-2-2 1h-15l-5-1q-1.25 2.25-6 1h-2l-2-1-2 1-2-1-3 1zM506.5 96l26.5.5-2.5 1.5h-4l-4-1-2 1h-2l-4-1h-2l-2 1-3-1-1.5.5zM606.5 96l2.5.5-8.5 3.5v-1zM716.5 96l43.5.5-17.5.5-2 1-1-1h-18l-2 1-2-1-1.5.5zM762.5 96l2.5.5-2.5 1.5zM768.5 96l4.5.5-4.5.5zM783.5 96l8.5.5-.5 1.5-8-1zM822.5 97l1.5.5-2.5 1.5zM532.5 98l.5 3.5h-1zM598.5 100l-1 2-3 2 2-3zM646.5 100l4.5 3.5-2.5-1.5zM816.5 100l1.5.5-3.5 2.5zM504.5 104l.5 3.5h-1zM590.5 104l2.5.5-4 3q3.08-1.75 1.5-3.5M230.5 111l.5 3.5h-1zM491.5 113l.5 4.5h-1zM711.5 117l1 3 49.5.5-49.5.5q-2.5-1-1-4M350.5 119l.5 3.5-1.5 2.5-.5-1.5zM132.5 120l-2.5 3.5-.5 1.5-4 2 1-2zM284.5 120l1.5 2.5h-1zM450.5 120l39.5.5-39.5.5zM9.5 122l.5 67.5H9zM208.5 122l.5 3.5h-1zM229.5 123l.5 6.5h-1zM874.5 123l.5 3.5h-1zM308.5 126l.5 1.5-1 2 .5 1.5-1.5-2.5zM374.5 129l.5 3.5h-1zM525.5 130l1 3 1.5-.5q-1.5 3-3 0zM122.5 133l6.5.5-6.5.5zM86.5 135h5l7.5 2.5-3.5.5-9-2zM254.5 135l.5 4.5h-1zM83.5 136l1.5.5-6.5 3.5-1.5-2.5 1.5.5zM755.5 136l-.5 1.5-.5 1.5-.5-1.5zM574.5 137l.5 3.5h-1zM254.5 142l.5 3.5h-1zM397.5 143l1.5 3.5-2-1zM121.5 144l6.5 2.5-.5 1.5-6-3zM129.5 147l2.5 3.5-3-2zM227.5 148l.5 5.5h-1zM253.5 148l.5 3.5h-1zM521.5 148l.5 3.5h-1zM103.5 150l1.5.5-4.5 2.5 1-2zM816.5 151l.5 3.5h-1zM790.5 152l.5 9.5h-1zM568.5 163l.5 3.5h-1zM252.5 164l.5 3.5h-1zM820.5 164l2.5 1.5-1.5.5zM438.5 166l5.5.5-5.5.5zM446.5 166l17.5.5-.5 1.5-1-1h-16zM468.5 166l2.5 1.5-1.5 3.5-.5-2.5.5-1.5zM114.5 167l-1 2-3 1v-1zM226.5 167l.5 4.5h-1zM739.5 168l-.5 1.5-.5 1.5-.5-1.5zM647.5 172l.5 3.5h-1zM737.5 172l-.5 1.5-3.5 7.5-.5-1.5zM849.5 176l-.5 1.5 4.5 5.5-5.5-5.5zM389.5 178l.5 3.5h-1zM250.5 185l.5 9.5h-1zM225.5 186l.5 3.5h-1zM9.5 192l.5 21.5H9zM306.5 194l.5 3.5h-1zM224.5 201l.5 3.5h-1zM249.5 202l.5 3.5h-1zM397.5 207l1.5.5-.5 1.5-2.5-.5zM248.5 212l.5 6.5h-1zM223.5 216l.5 3.5h-1zM9.5 219l.5 9.5H9zM247.5 223q2.75 1.25.5 2.5l-.5 1.5zM394.5 224l.5 3.5h-1zM771.5 227l.5 3.5h-1zM580.5 229l.5 4.5h-1zM222.5 230l.5 5.5h-1zM9.5 235l.5 8.5H9zM295.5 236l.5 3.5h-1zM704.5 237l-.5 1.5-.5 1.5-.5-1.5zM417.5 241l1 1 44.5.5-44.5.5zM500.5 241l1 1 34.5.5-35.5.5zM328.5 242l2.5 1.5-1.5.5zM342.5 242l-1 2-4 1v-1zM537.5 242l6.5.5-.5 2.5-1-2q-6 1.25-5-1M221.5 243l.5 3.5h-1zM372.5 243l.5 1.5-2 1zM298.5 244l.5 3.5h-1zM587.5 244l7.5.5-7.5.5zM700.5 244l.5 1.5-1.5 2.5-.5-1.5zM807.5 244l4.5.5-4.5.5zM472.5 246l.5 3.5h-1zM845.5 246l.5 1.5-3 2zM388.5 250l.5 3.5h-1zM220.5 257l.5 4.5h-1zM9.5 259l.5 7.5H9zM359.5 259v2l1.5.5-1.5.5q-3-1.5 0-3M691.5 262l.5 1.5-2 1zM468.5 264l1 2 11.5.5-11.5.5zM538.5 265l-1 2-1.5-.5zM717.5 265l-1 2-26.5-.5 26.5-.5zM221.5 266l10.5.5-10.5.5zM234.5 266l18.5.5-18.5.5zM351.5 266l1.5.5-2.5 1.5zM385.5 266l24.5.5-24.5.5zM411.5 266l44.5.5-44.5.5zM482.5 266l43.5.5-43.5.5zM528.5 266l4.5.5-4.5.5zM84.5 268l4 4 17.5.5-17.5.5zM329.5 282l3.5.5-3.5.5zM335.5 282l8.5.5-8.5.5zM218.5 283l14.5.5-14.5.5zM234.5 283q2.25.75 1.5 4.5h-1zM267.5 283l14.5.5-14.5.5zM283.5 283l1.5 1.5v78h-1v-78zM379.5 283l63.5.5-63 1-.5 2.5zM453.5 283h54l1.5 1.5-.5 14.5-1.5-.5 1-1v-13l-54.5-.5zM521.5 283l14.5.5-14.5.5zM537.5 283l1.5.5-.5 4.5zM321.5 284l1.5.5-3.5 1.5v-1zM235.5 292l1 21 10.5.5-11.5.5zM538.5 293l.5 3.5h-1zM379.5 295l1.5 3.5-1.5.5zM51.5 299l.5 8.5h-1zM161.5 299l3.5.5-3.5.5zM402.5 299l.5 8.5h-1zM636.5 299l7.5 17.5q-2.25 1.25.5 2.5l16 1 4-1-1.5 2.5q.5 4-2.5 4.5l-9.5 8.5-1 6h1l.5-1.5.5 2.5-1 3h1l.5-1.5.5 2.5-1 3h1l.5-1.5 1.5 6.5-4.5.5-12-8h-5l-10 7-6 1-.5-1.5 1.5-4.5 1 4 18-9 16 10 .5-1.5-16-10h2l-1-5 1-4q-2.5-1.5 1-3l.5-1.5 2.5-.5 1-4-4-2-.5-3.5-1.5-.5q1.25-4.75-1-6l2-1-2-1-1-2 1-4zm25.5 21-14 12 2 5v-3l13-13zM725.5 299q5.9 8.1 8 20h10l6.5 1.5-13 11 1.5 6.5q-.71-7.21 4-9l9.5-8.5-.5-1.5 2.5.5-3 3q2.25 1.25-.5 2.5l-3.5 2.5-.5 1.5-6.5 5.5 3 16-2.5-1.5-13.5-7.5 1.5.5 1.5-.5-2-4 2-3-1-5 5-2v-2l-.5-2.5q-3.75.75-4.5-1.5l.5-1.5-1.5-.5-1-10 1-2zM813.5 299l1.5.5 7 17-1 2 17 2-13 11 1.5 5.5q-.6-4.6 2-6l11.5-10.5-.5-1.5 2.5.5-8.5 10.5-5.5 4.5-1 6h1l.5-1.5.5 2.5-1 3h1l.5-1.5.5 2.5-1 3h1l.5-1.5.5 2.5-1.5.5-12.5-7.5 1-2-1-3q-1.31-6.81 1.5-9.5l1.5-.5 2-3-4-2 1-3-2-1-3-8 1-2-1-2 1-3zM723.5 300l.5 2.5-6.5 14.5-.5-2.5zM634.5 301l.5 1.5-6.5 14.5-.5-1.5zM811.5 301l.5 2.5-2.5 4.5-.5-1.5zM538.5 302l.5 3.5h-1zM149.5 303l.5 3.5h-1zM808.5 309l.5 1.5-3.5 6.5-.5-1.5zM248.5 313l7.5.5-7.5.5zM257.5 313l7.5.5-7.5.5zM496.5 314l3.5.5-3.5.5zM357.5 318l.5 4.5h-1z" opacity=".843"/><path fill="#969f8f" d="m608.5 319 10 1 5-1 6 7 1.5.5v6l-2 7 3.5 2.5 1.5-.5-13.5 8.5-1.5-6.5h1l.5 2.5 1.5-6.5-1-5-11-11zm1.5 1 8 8q5 2 5 10l1-5-1-2-10-10zM698.5 319q3.17 2.33 10 1l5-1v2l1.5.5 3.5 4.5 1.5.5 1 3-3 10 2 2-.5 2.5-10 6-1.5-5.5h1l.5 1.5.5-2.5-1-3h1l.5 1.5.5-2.5-1-5-6.5-6.5-1.5-.5-.5-1.5-3.5-2.5q2.5-1.5-1-3zm.5 1 8 8q5 2 5 10l1-6-11-11zM785.5 319l2.5.5-2 1 3 2 2.5 3.5 9 8 .5-2.5-12-11 13.5-1.5v2l1.5.5 1.5 3.5 3.5 2.5-3 14 1.5 2.5-2-1-1 3-7 4-1.5-4.5h1l.5 2.5.5-3.5-1-3h2l-1-7-11-11zM375.5 320l.5 4.5h-1zM538.5 324l.5 5.5h-1zM235.5 329l.5 33.5h-1zM402.5 338l.5 24.5h-1zM538.5 339l.5 5.5h-1zM812.5 340l3.5 1.5-1.5-.5-3 1zM724.5 343l4 1 14 9 1.5-.5-.5 1.5h-4l-12-8h-5l-10 7-6 1-.5-1.5 2.5-.5h2z" opacity=".843"/><path fill="#969f8f" d="m812.5 343 6 2 12 8 1-2 .5 2.5-4.5.5-14-9-15 9h-4v-1l1.5-.5-1-3h1l.5 2.5zM345.5 346l-1 2-5 1v-1q4.6.6 6-2M503.5 347q6-1.5 7.5 1.5l-1.5-.5h-6zM564.5 347l12.5.5-12.5.5z" opacity=".843"/><path fill="#0c8445" d="m72.5 40 .5 7.5-2.5.5q-11.18-.18-15.5 6.5l-4 8-.5 31.5-.5-28.5-1-1 5-12 2.5-2.5 5-3 9.5-1.5zM80.5 41q-.88 5.37 2 7l54.5-.5.5-6.5 1.5.5q1.5 7-2.5 8.5h-55L79 47.5zM146.5 41l1 5h5l8 4 4.5.5-1 3 3 4 2 10-1 2 1 1v16l-.5 7.5-1.5-.5v-32l-6.5-9.5q-5.04-4.96-15.5-4.5l1-4q-2.25-1.25.5-2.5M43.5 60l.5 33.5-2-1v-2l1-8q-2.25-1.25-1-6v-2l1-3q-2.5-1.5-1-7zM174.5 60l.5 33.5h-1zM317.5 98l.5 2.5-1.5 2.5-.5-1.5zM353.5 99l.5 3.5h-1zM314.5 107l.5 1.5-1.5 2.5-.5-1.5zM231.5 108l.5 4.5h-1zM255.5 108l.5 5.5h-1zM790.5 112l.5 2.5-1.5 2.5-.5-1.5zM124.5 115h6l5.5 2.5q-1.25 2.75-2.5.5l-9-1-4 1-7.5 6.5-3.5 6.5-6.5-5.5-.5-1.5-10-2-9.5 4.5-6.5 11.5-.5-2.5q1.67-8.33 7.5-12.5 5-4 16-2l7.5 4.5.5 1.5 3.5-1.5 1.5-3.5 2.5-1.5.5-1.5zM527.5 116l.5 3.5h-1zM617.5 116q9.17-.18 12.5 5.5l1 4h-1q-.25-4.75-3.5-6.5-3.83-2.67-12-1l-8.5 6.5-1.5 2.5.5-1.5 6.5-7.5zM835.5 116q9.18-.18 12.5 5.5l1 4h-1q-.25-4.75-3.5-6.5l-9-2q-7.65 1.85-11.5 7.5l-3.5 7.5-.5-1.5q2.92-8.08 9.5-12.5zM489.5 117l.5 1.5-1.5 1.5h-22v-1l22.5-.5z" opacity=".996"/><path fill="#0c8445" d="m207.5 118 .5 152.5q-3.06 10.94-11.5 16.5l-12 5h-150q-13.19-2.31-19.5-11.5l-5-10v-151h1l.5 101.5 1.5-10.5v-2l-1-20 2-4-1-5h1l1 5-1 2 1 1 .5 17.5 1.5-.5.5 1.5 1.5-.5-.5-1.5 2 1v-2l3-1 7 5 3-2 2 3 3-2 1 3 3.5-.5-3-1 2.5-.5 3 1 2-1h2l3.5 1.5-3 1 3.5 1.5 4 1 1-3 1.5.5.5 2.5q2.75-1.25.5-2.5l.5-1.5 3 2 1.5-.5v2l-.5 2.5-2.5.5.5 1.5q1.5-2.5 3 1l4 1 3-2q2.75 1.25.5 2.5l-1 5 2.5.5 2.5-16.5 6-20 10-21 8.5-13.5 1.5-.5 1.5-2.5.5 1.5q-15.07 20.93-24 48l-5 23-2 25 1 1v11h-1l-.5-2.5-.5 4.5 4 3 4.5 6.5 1.5-.5 2.5 3.5h14l1 1 3-1h2l1.5-.5-4-8-6-25q1.5-5.5-1-7v-31l1-1 1-13 7.5-24.5.5 2.5-7 23v7l-2 8v23h1l1-8-1-3v-2l.5-1.5 1.5-.5.5-3.5 1 5 10 2v-2l2.5.5q-2.25 1.25.5 2.5l1.5-.5q-2.75-1.75 1.5-3.5l3 2 5-1 2.5.5-1 2 1.5 2.5 1.5-.5-1-3 1.5-1.5h2l1.5.5-.5 1.5 3.5-.5.5-1.5 2 4 5-1h2l4-1v1l-1.5.5 2.5.5q1.75-3.08 3.5-1.5l1.5-4.5 2.5 3.5-1.5.5-1-2-.5 2.5 4.5 1.5 1-1h10l1 2 4.5-.5.5-1.5 1.5-.5-.5-1.5-1.5.5 1.5-1.5 6.5-.5-1-2 3.5-1.5 5 1 2 2 1.5-.5-1 4 6.5 2.5v-1l-1.5-.5 1.5-.5 2.5 4.5 1 12-1 5 1 1v10l.5 8.5zM22 205l-1 3h3v-2zm101 10-1 2 2-1zm3 0-2 2h3v-1zm22 3-2 2 1 1h1zm9 1-1 3 3 1-1-1 6-1v-1h-1zm-145 4-1 13h1zm63 2-1 6h1zm0 7-1 4h1zm-1 19-1 4h1zm133 8-1 4h1zm-101 1-1 3h2v-2zM737.5 118l1 1 16.5.5-42.5.5v-1h24zM444.5 119l20.5.5-21 1-.5 1.5-.5-1.5zM756.5 119l7.5.5-7.5.5zM788.5 119l.5 1.5-8.5 16.5-.5-1.5zM401.5 123l-.5 1.5-.5 3.5-.5-3.5zM254.5 124l.5 4.5h-1zM603.5 128l.5 1.5-1.5 2.5-.5-1.5z" opacity=".996"/><path fill="#0c8445" d="m123.5 131 10 1 5.5 3.5.5 1.5 1.5.5 2 4v6h-1v-4l-5.5-7.5-8-3h-6l-2 1-2.5-.5zM304.5 133l.5 1.5-1.5 2.5-.5-1.5zM601.5 133l.5 2.5-1.5 4.5-.5-3.5zM253.5 136l.5 3.5h-1zM302.5 138l.5 2.5-1.5 2.5-.5-1.5zM97.5 139l4.5.5-1.5 1.5-10.5 2.5-.5 1.5-2.5.5-2.5 4.5-.5-3.5 4.5-4.5zM119.5 144l1.5.5 1.5 2.5 1.5.5 3 6v3h-1zM776.5 144l-.5 1.5-.5 1.5-.5-1.5zM109.5 152l1.5 2.5v11l-1.5 2.5-.5-3.5 1-1v-8zM815.5 152l.5 4.5h-1zM863.5 161l-.5 1.5-2.5 3.5 1.5-2.5zM292.5 165l.5 1.5-1.5 2.5-.5-1.5zM854.5 171l-2 3-3 2 2-3zM289.5 173l.5 1.5-1.5 2.5-.5-1.5zM758.5 181l-.5 1.5-1.5 2.5.5-1.5zM284.5 186l.5 1.5-1.5 2.5-.5-1.5zM464.5 187l.5 2.5-1.5.5.5-1.5zM816.5 189l4.5.5-4.5.5zM822.5 189l3.5.5-3.5.5zM827.5 190l3.5 2.5-2.5-1.5zM750.5 196l.5 1.5-2 1zM100.5 198l1.5 4.5-1.5 2.5zM805.5 199l-.5 1.5-.5 1.5-.5-1.5zM747.5 202l.5 1.5-2.5 3.5.5-1.5zM114.5 206l2 1 3-1 5 2q1.25-2.25 2.5.5l-2.5 1.5-2-1-1.5.5.5-1.5-4-1 .5 1.5-.5 1.5-1-2-4.5-.5zM74.5 209l.5 4.5-2-1zM274.5 212l.5 1.5-1.5 2.5-.5-1.5zM741.5 214l.5 1.5-2.5 3.5.5-1.5zM271.5 220l.5 1.5-2.5 5.5-.5-2.5zM737.5 222l.5 1.5-7.5 14.5-.5-1.5zM634.5 223l.5 2.5-1.5 3.5-.5-2.5zM377.5 225l.5 3.5h-1zM419.5 226l.5 3.5h-1zM268.5 228l.5 1.5-1.5 2.5-.5-1.5zM579.5 229l.5 3.5h-1zM376.5 230l.5 2.5-5 12-9.5 12.5q-7.72 6.78-19 10l-17 1-11-2-1.5-1.5 1.5.5 11 2h11q1.25-2.25 6-1l12-5 11.5-10.5q6.55-8.45 9.5-20.5M850.5 232l.5 2.5-2.5 4.5-.5-1.5zM266.5 233l.5 1.5-3.5 8.5-.5-2.5zM631.5 234l.5 1.5q-5.55 15.45-17.5 24.5l-9 5-11 2v-1q19.74-2.26 28.5-15.5zM729.5 239l-.5 1.5-12.5 25.5-.5-1.5zM847.5 240l.5 1.5-2.5 3.5.5-1.5zM844.5 246l-.5 1.5-7.5 9.5q-11.95 12.05-37 11v-1q26.6 1.1 38.5-12.5zM459.5 248l.5 3.5h-1zM260.5 249l.5 1.5-1.5 2.5-.5-1.5zM556.5 251l9 11 10 4 17.5 1.5-12.5.5q-1.25-2.25-6-1l-9-4-7.5-7.5zM301.5 252l7.5 9.5-6-5zM258.5 254l.5 1.5-1.5 2.5-.5-1.5zM776.5 256q5.04 7.46 15.5 9.5l-2.5.5q-9.76-2.6-13-10M255.5 262l.5 2.5-1.5 1.5h-33l-.5-1.5 30.5-.5h2l1.5-.5zM456.5 263l.5 1.5-1.5 1.5h-66l-.5-1.5 2.5-.5 2 1h4l2-1 3 1 53.5-.5zM472.5 264q4.75-1.25 6 1l2-1h2l49 1h2l4-1 .5 1.5-65.5.5zM693.5 264q8.88-1.37 14 1h2l5.5.5-16.5.5h-2l-3.5-.5zM793.5 266l4.5.5-4.5.5zM218.5 284l1.5 1.5.5 21.5 1-22 1.5.5.5 1.5 4-2 5.5 2.5.5 25.5 1-29 .5 28.5-1 2 1.5 1.5h8l1 1q4-3 12-2l4 1h4l6.5-2.5-1-1v-10q4-2 0-4l.5-1.5 1.5-.5-1-1v-9l4.5-1.5 2.5.5.5 1.5 3.5.5v12l-1 1q2.25 1.25 1 6l-.5 2.5-1.5.5-1 2 .5 1.5-1.5.5 2 1-1 2h2l1 3v39l-10 1 10.5.5 1-76 .5 78.5-16.5.5-1-34q-4.75 1.25-6-1h-24l-1.5 1.5-.5 33.5h-15l-1.5-1.5 1-1v-8l-1-2 1-2-1-5 1-3-1-3 1-23-1-3v-2q-1.25-4.75 1-6l-1-1v-8l1-2-1-1zm53.5 18-1 10h1zm-51 6-1 5h1zm0 7v31l1-4-1-2zm35 10v2l6-1zm14 3-1 33h1zm-36 1-1 23-1 1q2 1 1 6l-10 1h10l1 1zm-9 12-1 4 2-1zm-4 6v13h1z" opacity=".996"/><path fill="#0c8445" d="m267.5 284 1.5 1.5v27l-1.5.5zM329.5 284l13.5.5.5 1.5 3-1 1 2 3.5.5.5 1.5 1-2 4.5 2.5.5 2.5 2-1 5 6 1.5.5q2.75 2.25 2.5 7.5l1.5.5 1.5 4.5 1-3q4.32 9.18 2.5 24.5-1.95 10.55-7.5 17.5l-1.5.5-2.5 4.5q-7.81 8.19-22 10l-2-1-1 1h-8l-4-2h-2l-7-2-12.5-10.5-6-12-2-16 2.5-12.5.5 4.5-1 1v15l1.5 5.5.5-6.5-1-3 1-17-1-2h1l.5 1.5 2.5-6.5-.5-1.5q1.25 2.25 2.5-.5l3.5-5.5 10-7 4-1 1.5.5.5-1.5 2 1zm6.5 2q-1 2 3 1l1 4h-3l-1 2h4l3-1-2-3 2-1v-1zm16 4v1h3zm-21 7-6 3q-8 5-10 15v17l2 4h-2v2l7 8 1 2 2-1 1 3 7 1q9 1 14-3l1 2q2-1 0-2l5-3 5-8v-3l-1 2h-1l2-7v-11l-5-13q-4-6-11-8zm27 10q-2 4 1 7v16l-1 1 1 3 1-2v-22l-1-1zm-44 2-2 5h2l1-4zm58 2 1 4v-3zm-59 4q-2 9 0 16v1h1zm61 1-1 9h1zm-71 10-1 5h2v-4zm70 2-1 5h1zm-46 32v1q4-1 6 1h5q-3-4-11-2M380.5 284l1 12 1.5-.5q-2.5-1.5-1-7l2-1 .5-1.5q8.17 1.67 12-1v1l-1.5.5 15.5.5 2-1 3 1h2l4-1 2 1h2l1.5-.5.5-1.5 1 2 1-2 1 2 4.5-.5.5-1.5 1.5.5.5 1.5 1.5-.5.5-1.5.5 9.5-1.5.5-5-3h-4v1l3.5.5-11 2 18.5.5.5-10.5 1.5-1.5.5 13.5-24 1v51l1 4q-2.5 1.5-1 7l1 2-16.5.5-1-65h-19l-2-1-1.5.5zm9.5 9-1 2-1-1-3 1v1h16l-2-2h-8zm28 3-1 50h1zm-13 2-1 13h1zm0 33-1 5h1zm13 19-1 9v1h1zm-13 7-1 4 2-1 2 1v-1l-2-1zM453.5 284l2.5 1.5-1 2v72l2.5 1.5h4l37.5-1.5-43-1v-47l1-2-1-1v-11h2l.5-4.5 2 1 1-3 8.5-1.5-.5-1.5-3 1-2-1-6 2-.5-2.5 38.5-.5q1.25-2.25 6-1l3.5 1.5-1.5 4.5-13.5.5 11.5.5 2.5 1.5-9.5.5h-27l-1.5 1.5 1.5.5 1-1 37.5-.5.5-11.5.5 13.5-38 1-.5 15.5-1.5-.5 1.5 2.5h15l1 1h2l4-1 2 1 5-1 3 1 1.5-.5-.5 9.5-2.5.5 3.5.5.5-10.5 1.5-1.5.5 13.5-2.5.5-33.5.5-.5 17.5-1.5-3.5q2.25-1.25 1-6-2.25-1.25-1-6 2.25-1.25-.5-2.5l-.5 17.5 2.5 3.5 4 1 1-1h11l4 1 1-1h11l2 1 4-1 1.5.5.5-2.5.5 5.5-1 1-.5 8.5h-53l-1-1-1.5.5zm19.5 7-2 2 8 1 1-1h8l-2-1h-12zm-5 1-1 2h3v-1zm0 6-1 15 2-1-1-4 1-3v-2zm2 28v1h29zm38 26-1 6h1zM521.5 284l1.5.5.5 76.5 5-1 2.5-.5-7-1v-18l1-3q-2.25-1.25-1-6l2-1-.5-1.5-1.5.5q-1.75-6.25 1-8l-1-5 2-1-.5-9.5-1.5-.5 2-1-1-3 .5-1.5-1.5-.5q-.75-4.25 2-5v-5l-2-1 .5-3.5 1 2 6.5-.5.5-1.5 3.5 2.5v24l-1 2 1 2v2l.5 30.5 1-64 .5 63.5-1 2 18.5.5 1 1 4-1h2l10 1 3.5-1.5.5-1.5.5 3.5-2.5 11.5h-51l-2.5-1.5 1-1v-75zm7.5 18 1 6h1l-1-2 2-1-1-2zm44 56-1 1h-30l-2 1h-4l1 1 36-1 1 1zM52.5 299l1 2h13l1-1 1.5 4.5-1 2v2l-3.5 5.5-6 1-5.5-3.5-1-2zM150.5 299l1 2 5 1q1.5-2.5 7-1l1.5.5.5-1.5 1.5.5q1.43 10.43-4.5 13.5l-6 1-5.5-3.5-1-2zm3.5 10 2 2v-1z" opacity=".996"/><path fill="#0c8445" d="m302.5 302-.5 1.5-.5 1.5-.5-1.5zM697.5 319l15.5 12.5-1.5 6.5q.63-8.12-5-10zM840.5 319l-11 12-2.5 1.5 1 8h-1l-2-9zM609.5 320l3 1 10.5 9.5 1 2-1.5 5.5q.63-8.12-5-10zM661.5 320l1.5.5-13 13-.5 3.5-1.5-5.5zM750.5 320l1.5.5-13 12-.5 5.5-1.5-6.5zM786.5 320q9.42 3.58 14.5 11.5l-.5 2.5-11.5-10.5-1.5-2.5zM621.5 339l.5 3.5-2 7 2.5-1.5 12-7h3l14 8 1-3 .5 2.5q-2.5 1.5 1 3l-.5 1.5-14-9-4-1-17 10 .5-1.5v-5zM723.5 341h3l14 8 1-2 .5 1.5q-2.5 1.5 1 3l-.5 1.5-14-9-4-1-17 10-.5-1.5 1.5-4.5 1 3zM812.5 341l16 8 1-3 .5 2.5-.5 1.5 1.5.5-.5 2.5-12-8-6-2-17 10 .5-1.5 1.5-7.5.5 3.5-1 2 2.5-1.5z" opacity=".996"/><path fill="#eff5f2" d="m897.5 0 .5 4.5h-1zM899.5 0l.5 4.5h-1zM897.5 6l.5 8.5h-1zM899.5 6l.5 10.5h-1zM813.5 10l2.5 1.5-.5 1.5-2.5-.5zM795.5 30l1.5.5-.5 2.5zM80.5 32l11 1 1-1h16l2 1 1-1h27v1l-11.5.5 5 1-5.5.5h-2l-3-1-3 1-2-1-4 1-4-1-1 1h-14l-5-1-7.5 1.5-1.5 2.5-2.5.5 1 1v8L76.5 51l-.5-3.5v-4l-.5-4.5-1 3-1-3-5-1q-1.25 2.25-6 1v-1l5.5-.5-5-1 7.5-1.5 3.5 1.5-3 1 3.5 1.5zm.5 1v1h7zm13 0v1h14zm19 0v1h3z" opacity=".173"/><path fill="#eff5f2" d="M133.5 34q4.75-1.25 6 1l1.5-.5v2l.5 1.5 1.5.5-2 1 2.5.5 1-2 1.5-.5-2-1q2.06-2.44 7.5-1.5v1l-5.5.5 6.5 1.5 3-1 10.5 1.5-.5 2.5-2 1-4-2-1.5-.5 2-1-4.5-.5v2q-2.93-2.57-9-2l-2.5 4.5 2 6q-2-1.67-4 2l-.5 1.5-7.5 2.5 2 1-1.5.5-2.5-.5.5-1.5-3.5.5 2 1-1.5.5-2-1-1 1h-15l-4-1-5 1h-2l-6-1-1 1h-10v-1l8.5-.5-11.5-.5v1l1.5.5-2.5 1.5v-2L77 53.5l.5-1.5q1.25 2.25 2.5-.5l-2-1 2.5-.5 6 3 10 1v-2l5 2 4-1 5 1v-2l1 1h15l2 1 5-2h4l1.5-.5-.5-1.5 1.5-.5-1-2h2l1-4-2-1-.5-4.5-1.5-.5-.5-1.5-4-1zM103 54v1h3zm10 0v1h14zM56.5 36l4.5 1.5-3 1 2 1-7 2q2.25 1.25-.5 2.5L50 42.5l1.5-3.5 1 2 1-2 1.5-.5-.5-1.5 2 1zM899.5 39l.5 24.5h-1zM165.5 42l4.5.5-4.5 1.5zM47.5 43l2.5 1.5-3.5 4.5-2.5.5 1 2-1.5 2.5-1.5-.5 1 3q-3.05 1.45-2.5 6.5l-1.5.5 1.5 2.5-2.5 1.5 3 3-1 1-1 2 2 5-2 5 2 9-1.5-.5-7.5.5 3 1-3.5 1.5h-2l-3 1-2-1-1 3-2-1-1 2-3-1-1.5.5.5-1.5 3 1 1-2 1.5-.5q-2.25-1.25.5-2.5l1 2 1-3 3 1L38 90.5q-2.5-3.5-1-11l1-3-1-2v-2l1-4h-2l3-9-.5-1.5 1.5-.5-1-4 3-1v-2zM39 84l-1 5h1zM74.5 43l.5 5.5-1.5.5.5-1.5zM171.5 44l2 4 1.5-.5-.5 1.5 2 1 1.5-.5-2 3 3 1h-2q.35 5.15 4 7l1 5h-2l1 3-1.5 2.5-1.5.5 1 9-1.5.5-.5-15.5h2L171.5 49l-1.5-.5 2-1zM897.5 44l.5 12.5h-1zM66.5 49q5.75-.75 8.5 1.5l-7 3-.5 1.5-.5-1.5.5-1.5-3-1-1 2 2.5.5-.5 1.5-4-1q1.67 2-2 4l-1.5-.5-.5 1.5-3.5-.5 3.5-4.5 1.5.5.5-2.5 2 1 1-2zm3.5 1-1 2h3zM147.5 51l6.5.5.5 1.5h2q3.75-.75 4.5 1.5l-1.5 5.5-1-4-5-1-2 1v-1l1.5-.5-4-1-.5-1.5zm9.5 3v1h3zM161.5 56l4.5 7.5v29h-1l-.5-27.5-1 28-1-28-1.5-.5 2-1-2-1zM897.5 58l.5 5.5h-1zM455.5 59l1.5.5-1.5 2.5-1.5-.5zM55.5 60l2.5.5-2 1-1 7v2q-1.25 4.75 1 6l-1 3 .5 11.5h8l1 1 2-1 1 2-2-1h-11l-1 1 .5-1.5-.5-12.5-1 2-.5-1.5q3.2-2.3 2-9h-2l1.5-9.5 1 2zM799.5 74l1.5.5-.5 2.5-1.5-.5zM177.5 82l.5 10.5h-1zM133.5 89l2.5.5.5 1.5 3 1 3-1v1l-4 1-5.5-1.5zM82.5 90v2l1.5.5-2.5 1.5v-2l-5 1-4.5-1.5 3.5-.5 2 1zM96.5 90l1.5.5-2 1 2 1-1.5.5q-1.25-2.25-6-1-1.25 2.25-2.5-.5l2.5-.5q4.75 1.25 6-1M856.5 90l3.5.5-3.5.5zM99.5 91l7.5.5-7.5.5zM116.5 91l13.5.5-14 1 10 1-9.5.5q-3-1.5 0-3M147.5 91l14.5.5-14.5.5zM179.5 91l8.5.5-8.5.5zM230.5 91l3.5 2.5-.5 1.5 6.5.5-9 1q.71 6.71-2 10l.5 1.5-1.5-.5-1 6h2l-1 2 1 3v2l-.5 13.5-1-14-1 13-1.5-.5 2-14-1-2 1-2-1-2 2-6-1-4 1.5-2.5 1.5-.5-2-1 .5-2.5 2.5-.5-1-2 2-1zM622.5 91l5 2v-2l2.5 1.5-.5 1.5h-9l-1-1-1.5.5.5-1.5 4 1zM832.5 91h8l1 1 2-1v1l-1.5.5 8 1-12.5.5v-1l3.5-.5-8.5-.5v2l-3-1v2l-6-2-1.5.5.5-1.5 4 1zM189.5 92l2 1 2-1v1l-1.5.5 8 2-3 1 3 1 .5 1.5 1-2 7.5 12.5-1.5.5-5-7-4.5-3.5.5-1.5-2-1-2 1-3.5-2.5.5-1.5-4 1-4.5-1.5 4.5-.5 1.5.5zM316.5 92l1.5.5.5 2.5 3.5.5-.5 1.5-2-1-24.5-.5 21-1z" opacity=".173"/><path fill="#eff5f2" d="m326.5 92 3.5 1.5.5 1.5 7.5.5-8.5.5-1.5 1.5-1 2v2l-2.5 13.5-1.5-2.5.5-1.5-1.5-.5.5-1.5 2.5-.5-.5-1.5-2 1-3-1v1l1.5.5-.5 2.5-1-2-1.5.5-.5-2.5-1.5-.5q3.72-2.28 3.5-8.5l2.5.5 1 3-2 1-1 2 2 1 .5 1.5 2-5 1 4 1.5-5.5-2-1 .5-2.5 2.5-.5-2.5-1.5-1.5.5.5-1.5 2.5-.5zM390.5 92l3.5 1.5-3.5.5z" opacity=".173"/><path fill="#eff5f2" d="m407.5 92 1.5.5-.5 7.5-1-4-25.5.5-.5 1.5-2-1-1 6-.5-5.5 2.5-2.5 20.5-.5.5-1.5 1 2 3-1 1.5.5zM423.5 92l3.5.5-.5 1.5-3.5-.5zM477.5 92l2.5.5-3 1 5 2-13.5.5v-1l8.5-.5-5-1zM603.5 92l1 2 1-2 1.5.5-.5 1.5-2 1z" opacity=".173"/><path fill="#eff5f2" d="m609.5 92 5.5.5-1.5 2.5-6 1v-1l1.5-.5q-2.25-1.25.5-2.5M633.5 92h2l3.5 1.5-2 1 3.5.5v-2l6.5 3.5-1.5.5-3-1v2l-9.5-4.5zM716.5 92l2.5.5-.5 1.5-1.5.5 5.5.5 5-1q1.25 2.25 6 1v-1l-3.5-.5 4.5-1.5h22v1l-9.5.5 15.5 1.5 1-1 10.5-.5-8-1 7.5-.5h2l8 1 3-1v1l-2.5.5 3.5 1.5 8-2v1l-2.5.5 3 1 .5 3.5 1-4 1 7 1-2 .5 1.5-1.5 2.5-1.5-.5-1 4q2.25 1.25-.5 2.5l-1-3-1.5 3.5q2 3.67 4 2l-.5 1.5-1.5.5-1.5 3.5-1-2-1.5.5 3-1-.5-3.5-1.5.5 1-3 2-6v-2l-.5-5.5-16.5-.5 6-1-9.5-.5-1 2-7-1-1 1h-13l-5-1-1 1h-13q-4.75 1.25-6-1l-1 1h-10l-1 1-.5-2.5zm18.5 1v1h10l1 1h1l-1-2z" opacity=".173"/><path fill="#eff5f2" d="m724.5 92 3.5.5-3.5.5zM852.5 92l2.5.5-.5 1.5-3 1 .5-1.5zM856.5 92h2l1.5.5-.5 1.5-3.5-.5zM100.5 93l4.5.5-4.5.5zM244.5 93l2.5 1.5-.5 1.5h-2l-1.5-.5 2-1zM254.5 93l1.5.5.5 1.5 1.5-.5.5 1.5 1.5-.5-2 10v15h1l.5-13.5.5 13.5-1 1v14l-1 2 2 1-3.5 1.5-1.5-.5v-2l1-2 2-39-4-2zm3.5 28-1 14h1zM331.5 93l13.5.5.5 1.5 5.5-.5.5-1.5 1.5.5-1.5 2.5q-6.25 1.75-8-1l-4 1v-1l3.5-.5-11.5-.5z" opacity=".173"/><path fill="#eff5f2" d="m346.5 93 3.5.5-3.5.5zM446.5 93l5.5.5-5.5.5zM428.5 94l3 1h2l3-1 3 1 10.5.5-10.5.5h-2l-9.5-.5zM483.5 94l2.5.5-2.5 1.5zM506.5 94h2l1.5.5-.5 1.5-5.5-.5zM600.5 94l2.5 1.5-.5 2.5q-10 4-16 12h-3l-.5-2.5h1l.5 1.5 1-3 2.5-.5.5-2.5 1.5-.5-2-1 5-1-2-1 1.5-.5q1.75 2.75 3.5-1.5l.5-1.5 1.5.5.5 2.5 2-3 1.5-.5zM451.5 95l4.5.5-4.5.5zM457.5 95l5.5.5-5.5.5zM511.5 95l3.5.5-3.5.5zM518.5 95l13.5.5-13.5.5zM533.5 95l2.5 1.5-.5 1.5-2.5-.5zM819.5 95l2.5.5-3 1 3 1-2.5.5-1.5-.5-.5 2.5-2-1-1 3-8 7-1.5-.5-.5 2.5-.5-3.5 1.5-.5q1.25 2.25 2.5-.5l1.5-4.5 1.5-.5q-2.25-1.25.5-2.5l1 3 1-3 1.5-.5-2-1 1.5-.5 1.5.5.5-1.5zM824.5 95l3.5.5-4.5 1.5zM860.5 95l3.5 1.5-3.5 1.5-2.5-1.5zM422.5 96l.5 3.5h-1zM868.5 96l2.5 1.5-2 1 3 1 1 4-1 1 3 3-.5 1.5-1-2q-1.25 2.25-2.5-.5l1-3-4-1 3-1-.5-1.5-3 1-3.5-2.5q1.25-2.75 2.5-.5l2.5-.5zM290.5 97l2.5.5-.5 3.5-1-3-.5 3.5 1 2-2.5 4.5-1.5.5 2 1-2.5 6.5-2.5-6.5v-2l.5-1.5 1 2 1-3 1.5.5.5 1.5.5-2.5-3-1 .5-2.5 2.5-.5zM501.5 97l1.5.5.5 1.5 1-2 1.5.5-.5 2.5-4.5-.5zM645.5 98l2.5.5-.5 2.5zM715.5 98l-.5 1.5-.5 5.5-3 1-.5-3.5 1.5-.5 1.5.5q-.75-3.75 1.5-4.5M419.5 99l1.5.5 1 5-2 1 1 3-1.5 3.5-2.5-8.5h1l.5 1.5zM495.5 99l.5 3.5-1 2 2 1 .5 1.5 1-2 .5 1.5-1.5 4.5-1-2-1 2-1.5.5 3 2h-2l1 3-2.5 2.5-2.5-.5q3.5-1.5 1-3l.5-2.5 1.5-.5-1-4q3.5-1.5 1-3zM650.5 99l4.5.5-.5 1.5-4.5-.5zM15.5 100l2.5.5-.5 1.5q-1.25-2.25-2.5.5v2l-5 7v2l-2 10-1.5 1.5Q4 124 5 119.5l4-8-1-4 5-4zm-5.5 7-1 4h1zm-3 12-1 4h1zM408.5 101l1 2 1.5-.5-2.5 6.5-1.5-.5 1 4-2 2q3.75 1.75.5 3.5l-2.5-1.5 2-10 1.5-1.5 1.5.5-.5-1.5-1.5-.5zM533.5 101l1.5.5-.5 2.5-1.5-.5.5 1.5 1.5.5-.5 1.5-1.5.5-.5 1.5-1.5-.5.5-2.5 1.5.5-1-4zM355.5 102l1.5 2.5h-1zM501.5 102l3.5.5-.5 1.5-1.5.5.5 1.5-2.5-1.5zM650.5 102l4.5.5.5 2.5 1.5.5-2 1 3 1 1 3-3 2-1.5-5.5-3.5-2.5.5-1.5zM709.5 102l.5 3.5h-1zM377.5 105l1 2 1-2 .5 1.5-2 3 .5 1.5q-3.75.75-4.5-1.5h2l.5-1.5 1.5-.5zM356.5 106l1.5.5-1 2 .5 1.5h-2l-1.5-.5.5-2.5 1.5.5zM501.5 107l2.5.5-3.5 10.5q-2.25-.75-1.5-4.5l1-3-1-2h1l.5 1.5zM711.5 107l2.5.5-.5 1.5-2.5-.5zM802.5 107l.5 2.5-1.5.5.5-1.5zM316.5 108l.5 1.5-2 1zM416.5 109l1.5.5 1 8-1.5 4.5-1.5-6.5h2zM531.5 110l1.5 2.5h-3zM709.5 110l3.5.5-1.5 6.5-.5-2.5 1-2h-2zM873.5 110l2 3 1.5.5-.5 1.5-2.5-.5zM207.5 111l2.5.5q2.83 2.67 2 9h-1l-.5-4.5-1 4zM353.5 111l2.5.5-.5 2.5-2.5.5.5 1.5 2-1 1.5 2.5h-1l-.5-1.5-1 2-1.5.5 2 1-1.5.5-2.5-.5 1.5-6.5 1.5-.5zM578.5 111l1 2 1-2 1.5.5.5 1.5 1-2 2.5.5-4.5 6.5-1.5.5v2l-.5 1.5-2.5.5 2 1-2 4-2.5 9.5-.5-2.5 1-2h-2l-1-2h2l-.5-3.5-1.5.5 3-2-.5-1.5q-1.25 2.25-2.5-.5h2l.5-1.5 2.5-.5.5-2.5 1 2 1-4 1.5-.5-2-1-.5-2.5-1 2-.5-1.5zM801.5 111l1.5.5-2 3 1 1-3 3-.5 2.5-1-2-1.5 2.5 1 4-3 1 2 1-2.5 5.5-1.5-.5.5 1.5 1.5.5-4 1 3 1-2 6q2.25 1.25-.5 2.5l-1.5-.5.5-3.5 1.5-.5-.5-1.5q-1.5 2.5-3-1l-2.5-.5 3-1-4.5-.5.5 1.5 1 3h-1l-.5-1.5-1 2-1.5.5 3 1-.5 1.5q-1.25-2.25-2.5.5l-1 3 1 2-4 2 3 2-.5 1.5-1-2-1 2-4.5-1.5 3-2q-2.5-1.5 1-3-.75-4.75 2.5-5.5l1.5-.5v-2l.5-1.5 1.5-.5-1-2 1.5-3.5 1.5-.5v-3l5.5-10.5 2.5.5-1.5 3.5-2.5.5.5 1.5 2-1 .5 1.5-4 3 3 2h-2l-.5 1.5-2.5.5.5 1.5 1.5-.5.5 2.5q3.25-1.75 3.5-6.5l-1-1 3-3q.85-7.15 5-11l-1-2 1.5-.5 1 2zM790 136v3q3-1 0-3M314.5 112l2.5.5-.5 2.5-3.5-.5zM375.5 112l2.5 1.5-2.5 9.5-1-2-1.5-.5 1.5-4.5 2.5-.5-2-1zM656.5 114l1.5.5-.5 3.5zM313.5 116l2.5.5-.5 1.5-2.5.5.5 1.5 1.5-.5-.5 2.5-4 1 .5-1.5zM319.5 116l1 3 1-3 2.5 1.5-.5 1.5-2.5.5 2 1-1.5 7.5-2.5-1.5 1-4-1-2v-2zM531.5 116l1.5.5-.5 4.5h-2l-1.5.5.5 1.5 1.5-.5-.5 3.5-2-1-.5 1.5 4 1-.5 1.5-1.5-.5 1 3h-1l-.5-1.5-1 2-2.5-.5 2-11zM659.5 116q3.19 3.31 1.5 11.5l-1.5 2.5-1.5-8.5 1-3zM282.5 117l1 2 1-2 2.5.5-4.5 9.5-1-2-1 2-.5-1.5 1.5-3.5 2 1 1.5-3.5-3-1zM404.5 118l1.5 2.5h-3zM875.5 118l.5 4.5h-1zM414.5 119l1.5.5-.5 2.5-1.5-.5zM498.5 119l2.5 1.5-1 3-.5 3.5h-2l-2.5-1.5.5-1.5 1 2 1-2 2.5-1.5-1.5-.5q-1.25 2.25-2.5-.5l.5-1.5 1 2zM710.5 119l2.5 2.5-.5 2.5-1-3-1.5-.5zM490.5 120l1.5.5-.5 1.5-1.5.5.5 1.5q-2.75-1.25-.5-2.5zM445.5 121l4.5.5-3 1 3 1-.5 1.5-1.5-.5-.5 2.5-1.5-.5-.5-2.5-.5 3.5 2 1-.5 1.5-3 1 .5-3.5zM465.5 121l2.5.5-.5 1.5-2.5-.5zM728.5 121l3.5.5-3.5.5zM736.5 121l4.5.5-3 1 3 1-2.5.5zM760.5 121l1.5.5-3.5 6.5-1.5.5 1 2-2.5.5-3.5-1.5 2-1 .5 1.5 1.5-.5-.5-1.5 1.5-.5-2-1 3-2zM877.5 121l1.5 6.5-1 2 1 2h-1l-.5-1.5-1 2-1.5.5 2 1-1.5 5.5-1.5.5 2 1-2.5.5-.5-2.5 2-5-1-2 1.5-7.5 1 4zM212.5 122l.5 26.5h-1zM373.5 122l1.5 3.5h-1zM405.5 122l1.5 2.5-2 1 1 2-2.5 4.5-1.5.5 2 1-2.5 4.5v-2l-1.5-.5 1.5-6.5 2.5-.5-.5-1.5-1.5-.5 1.5-3.5 1.5.5zM210.5 123l.5 25.5h-1zM312.5 123l1.5.5-2 4 1 2-2.5.5-1-2-1.5 2.5 5 1-1.5 2.5-1-2-1 2-1.5-.5-1-3 3-4q-2.25-1.25.5-2.5zM350.5 123l1 3 1.5-.5-1 4 .5 1.5-3.5 1.5 2 1-.5 1.5-2.5.5-.5 1.5-.5-1.5 2.5-6.5 1.5.5-.5-3.5-1 2-.5-1.5zM414.5 123l2.5.5-.5 1.5-2.5-.5zM728.5 123l4.5.5-4.5.5zM897.5 123l.5 5.5h-1zM899.5 123l.5 5.5h-1zM413.5 126l2 1 1.5-.5-2.5 5.5-1-2-1 5-.5-4.5 1-3zM372.5 127l2.5.5-2 5 .5 1.5h-2l-1.5-.5.5-3.5 1 2zM8.5 128l.5 6.5H8zM317.5 128l1.5.5.5 2.5 1-2 .5 2.5-4.5 17.5-1-2-.5 2.5 1 5-1.5 4.5-3.5-.5-.5-1.5-1 2-.5-1.5q1.31-3.19 6-3l-5-2h2l6-12q-2.75-1.75-1-8l2-1-2-1zM496.5 128l2.5.5-1.5 6.5-.5-3.5.5-1.5-1.5-.5zM657.5 128l.5 3.5h-1zM6.5 129l.5 47.5 1 1-1.5.5-1.5-1.5v-10l1-4q-2.75-1.75-1-8l1-2-1-3 1-6-1-5zM279.5 129l1.5 5.5-2 1 1 1q-3.08 1.75-1.5 3.5l-1.5-.5.5-4.5 1.5-.5zM899.5 130l.5 4.5h-1zM443.5 132l2.5 5.5h-1l-.5-1.5-.5 5.5.5 1.5-1.5-.5q-1 5 2 6l-3.5.5-.5-2.5-1-4 2-1-1-3 1.5-2.5 1.5-.5-2-1zM752.5 132h2l2.5.5-3 1 .5 1.5 1.5-.5-5.5 9.5-3.5 1.5 3 1-3.5 5.5-1.5.5.5 1.5-1.5-.5 1 3-5 7q2.5 1.5-1 3l-.5 2.5-3.5-.5v-2l1.5-3.5v2l1.5-.5q-.75-4.75 2.5-5.5 1.25 2.25 2.5-.5l-2-1 2-4-1-2h1l.5 1.5.5-2.5-1-3h1l.5 2.5 1-3 1.5-.5-2-1 3-2 2.5-4.5 2.5-.5-4-1 .5-1.5 3.5-1.5zM306.5 133l1 3 2-1v1l-1.5.5 1 2h-1l-.5-1.5-1.5 2.5 1 2-2.5 3.5-2.5-.5 1.5-2.5q1.25 2.25 2.5-.5l-2-1zM495.5 133l.5 2.5-1 4h1l.5-2.5.5 2.5-3.5 1.5-1.5-.5 2-1zM527.5 133l1.5.5-1 2 .5 1.5h-2l-1.5-.5.5-2.5 1.5.5zM370.5 135l2.5 1.5-3.5 14.5-1-4-1 3-1.5-.5.5-2.5 1.5-.5 1.5-6.5 1.5-.5zm-.5 8-1 4h1zM227.5 136l.5 7.5h-1l-.5-1.5-3 1-.5-1.5 4-1-3-1 3-2zM656.5 136l1 4 1-3 .5 2.5-1.5 3.5-2.5-.5zM347.5 138q2.25.75 1.5 4.5h-1l-.5-2.5-1 2-.5-1.5zM410.5 138l3.5.5-3.5 5.5-1.5-.5.5-2.5 1.5-.5-2-1zM524.5 138l3.5 1.5h-2l-.5 1.5-1.5-.5zM569.5 138l1 2 1-2 2.5 1.5-4.5 18.5-1-5-1.5.5 1-3-1-2h1l.5 1.5.5-2.5-1-2h1l.5 1.5 1-2 1.5-.5-2-1 .5-1.5 1.5-.5-3-2zM255.5 141l1.5.5-.5 2.5-1.5-.5zM270.5 141l1 2 1-2 1.5.5.5 1.5 1-2 .5 1.5-1.5 2.5-3.5-.5zM398.5 142l2.5.5-.5 1.5-2 1zM492.5 142l1.5.5 1 2-2.5.5zM523.5 142l2.5.5-.5 3.5-1-2-1.5 2.5 2 1 1 4-2 1-.5 2.5-1-2-.5 2.5q2.5 1.5 1 7l-4 2 3 1v2l-.5 1.5-1.5.5.5 1.5-2.5.5.5 1.5 3-1 .5 2.5-2.5.5-1.5-.5-1-4 2-5q-2.5-1.5 1-3l.5-3.5 1.5.5-.5-2.5-1.5.5zM872.5 142l3.5.5.5 1.5 1.5-.5-1.5 2.5-1-2-1.5 2.5v2l-1 3 1 2-3.5 6.5-3.5.5 2 1-1.5 3.5-1-2-1 2-1.5.5 2 1-3 2 1 2-2.5.5-2.5.5v2l-.5 1.5-3-1-1.5.5 8-6-.5-1.5 2.5-.5-2-1 3-2q.35-5.15 4-7zm.5 4-1 4h1zM223.5 144l2.5 1.5-.5 2.5-2.5-.5.5-1.5 1.5-.5zM276.5 144l.5 1.5-1.5 3.5-2.5-.5.5-2.5 2.5-.5zM345.5 144l2.5.5-.5 1.5-1.5.5.5 2.5 1-2 .5 1.5-3 1 .5 1.5 2.5 1.5-.5 3.5-1-4-1 5-2.5.5 2 1 .5 1.5 1.5-.5-2.5 3.5-2.5.5 2 1-.5 1.5-2.5-1.5 2-6v-2l2-4-1-3zM654.5 144l2.5.5-.5 6.5-2-1-.5 1.5 4 2-1.5 2.5-1-2-1 2-2.5-.5zM8.5 145l.5 5.5H8zM411.5 145l.5 3.5q-3.5 1.5-1 3l-.5 1.5-1.5.5.5 1.5-1.5-.5 1 7-2 1 .5-1.5-3.5.5 2 1 .5 3.5 1-2 .5 1.5-3.5 11.5-1-2-.5 3.5 2 1-2 1 1 3-2 1 1 3-2 3q2.25 1.25-.5 2.5l-1.5.5.5 1.5 1.5-.5-3 1q1.5 6.5-2 8l1.5.5 1.5-.5-1.5 3.5-2.5-.5q-.75-4.25 2-5v-6l2.5-3.5 1.5-.5-2-1 .5-1.5 1.5-.5-3-2 .5-1.5 1.5-.5-1-2 4-1q-2.25-1.25-1-6 2.25-1.25 1-6l1.5-1.5 1.5-.5-2-1 .5-1.5-3.5-1.5 5-4v-4l2-4h-2l.5-1.5 2 1 .5-2.5-1.5.5-1.5-.5.5-1.5 4.5-.5zM254.5 146l3 1 1.5-.5-.5 1.5-1.5.5 2 1-2.5 6.5-2.5-.5 1-2-1-4v-2zm1.5 3v4l1-3zM301.5 146l1 3 1-3 .5 2.5-1 2 .5 1.5-1.5-.5-.5 1.5-1.5.5q3.5.5 3 5h-1l-.5-1.5-1 2-2-1-.5 1.5 2 1-2 4 1 2h-1l-.5-1.5-.5 2.5 1 2h-1l-.5-1.5-2.5 7.5.5 1.5-1.5-.5 1 3h-1l-.5-1.5-1.5 2.5v2l-.5 2.5-2-1-.5 2.5h2l-1 2 1 2h-1l-.5-1.5-1.5 3.5 1 2-5 2 .5 2.5 1-2 .5 1.5q-2.75 2.25-2.5 7.5l-1.5.5 2 1-.5 1.5-2.5.5 2 1-2 1-.5-1.5-1 2-1.5.5 2 1-3 2 2 1-.5 2.5-3.5 1.5 3 1-.5 1.5-3.5.5 4 1-2 1-.5 1.5-1-2-1 5-1.5.5 2 1-.5 2.5-1.5-.5-.5-2.5-1 3-.5-2.5 14.5-36.5 1.5-.5-2-1 4-6v-4l4.5-9.5 1.5-.5-1-4 4-6 1.5-7.5 3.5-.5-3-1zM397.5 146h2l1.5.5q.5 4-2.5 4.5l-1.5-.5.5 1.5 1.5.5.5 1.5 1.5-.5-3.5 6.5-2-1-1 2-.5-1.5zM494.5 146v3l-1.5.5 1 2-2.5 1.5-.5-2.5.5-1.5-1.5-.5.5-1.5h2z" opacity=".173"/><path fill="#eff5f2" d="m788.5 146 2.5.5-1 2v14l1 3v2l5 7-2 1 3 2-10.5 9.5-2.5.5 2 1-6.5 10.5-.5-2.5 1.5-2.5-1.5-.5.5-1.5 3.5-.5-4-1 .5-1.5 3.5-.5 1-3h-2l3.5-2.5q1.25 2.25 2.5-.5l-1-2h1l.5 1.5 1-2q4.5 1 5.5-1.5l-1.5-.5-1.5.5-1-2v-2l2-3-4-2-.5-1.5-1 2-.5-1.5 1-5-.5-1.5 1.5.5-.5-2.5-1.5.5 1-2-1-5h1l.5 4.5.5-8.5h-1l-.5 2.5-.5-3.5zM439.5 147l1.5 5.5h-1zM462.5 147l2.5 3.5-3.5 1.5.5-1.5-1-2zM223.5 149l3.5 1.5-.5 1.5-2.5-.5zM210.5 150l.5 10.5h-1zM212.5 150l1.5 12.5-1 1-.5 12.5zM272.5 150l2.5.5-3 1 1 4-3 5-2.5 9.5-3.5-.5 2-5-1-2h1l.5 1.5 1-2 1.5-.5-2-1 3-1-.5-1.5-2.5-.5.5-1.5 2.5-.5zM365.5 151l3.5 1.5-1.5 7.5-1.5.5 1 2-1.5 2.5-1-2-1 2-.5-1.5v-2l2-4-1-2 2.5-.5 1.5-.5-2-1 .5-1.5zM438.5 151l.5 4.5-2 1zM490.5 154l2.5.5-.5 1.5-1.5-.5 1 6-3 2 .5 1.5 1.5-.5-2.5 9.5-1.5-.5 1 6-1.5 4.5-1.5-8.5 2-8-2-4 4-2-2-1 2-1zm.5 4-1 4h1zm-4 17-1 5h1zM567.5 155l1.5 7.5-2 1 1 4-3 8v5l-2.5 8.5-1.5.5 1 4-1.5 3.5-1.5-4.5 2-1-2-1 1.5-2.5 1.5-.5-3.5-1.5-1.5.5 2.5-5.5 4.5-.5-2-1 1.5-7.5 1.5-.5-1-2 3-2-2-1 .5-1.5 1.5-.5-2-1 .5-2.5 2.5-.5-2-1zM773.5 155l1.5.5 1 4-2.5.5-1.5.5 1 3h-2l-1 4 1 2h-2l-1 3 1 2-1.5.5-1.5-.5-1 2 2 1-3.5 1.5-1.5-.5 7.5-16.5 1.5-.5q-2.5-1.5 1-3zM253.5 157l2.5.5-.5 5.5-1-4-1.5.5zM651.5 157l3.5.5v2l-.5 1.5-1-2-1 3-1.5.5.5 1.5 1.5-.5-.5 2.5-1.5-.5.5 1.5 2.5.5-.5 1.5-1.5-.5-.5 1.5-2.5-.5zM899.5 157l.5 27.5h-1zM224.5 158l2.5.5v2l-.5 2.5-2.5-.5zM437.5 158l2 5 28.5.5-31.5.5-.5-3.5zM222.5 159l.5 3.5h-1zM897.5 159l.5 24.5h-1zM309.5 160h2l2.5 1.5-1.5 3.5-1.5-.5 1 8h-1l-.5-6.5-1 8-1.5-.5 2-11zM210.5 163l.5 34.5h-1zM394.5 163l2.5.5-2 4h2l-2 2 1 3-.5 1.5-1.5-.5-.5 1.5-1.5.5.5 1.5q1.25-2.25 2.5.5l-.5 1.5h-2l-2 1-.5-1.5 2.5-8.5 1.5-.5-1-5z" opacity=".173"/><path fill="#eff5f2" d="m469.5 163 2.5 1.5-2 1 2 1 .5 1.5 1-2 .5 1.5-2.5 3.5-1.5.5 2 1-1 5 2 1-3 1v2l-1 7 1 2h-1l-.5-1.5-.5 2.5q2.25 1.25-.5 2.5l-4.5-.5 2-1-2-1 3-1 1.5-9.5 1 4 1.5-4.5-2-1 1-8 2-4-1.5-1.5-33.5-.5 34-1zM340.5 166l3.5 1.5-1.5 3.5-1-2-.5 2.5 1 2v2l-2 6 2 1-.5 1.5-1.5.5.5 1.5-3-2-1 2-.5-1.5 1.5-4.5 2.5-.5-2-1 2-5v-2zM363.5 166l1 4 1-4 .5 3.5-3 3 1 1q1 5-2 6v2l-1.5 9.5-1-6-1 6-.5-5.5 1.5-4.5 2.5-.5-2-1 .5-1.5 2.5-.5-.5-1.5-2 1 .5-1.5 1-2-1-2q2.75-1.25 2.5-5.5M223.5 168l2.5.5-.5 2.5-1.5-.5-.5-1.5-1 2-.5-1.5zM734.5 170l3.5.5-1.5 2.5-3.5-1.5zM263.5 171l3.5.5-1.5 2.5-1.5.5 1 2-2 1v4l-4.5 13.5-1.5.5 1 2-2.5 5.5-1.5.5v2l-.5 1.5-.5-1.5v-2l-.5-1.5-1.5-.5.5-1.5 1.5-.5-1-2 .5-1.5-1.5.5-.5 1.5-.5-2.5 2.5-1.5h2l1.5-.5v-3l3-5h-2l.5-1.5 2.5-.5-2-1 .5-2.5 1.5-.5-.5-1.5q1.25 2.25 2.5-.5zM648.5 171l2 1q1.25-2.25 2.5.5l-.5 1.5-1-2-1 3-1.5.5 1 3-1 3 1 2h-2l-.5 1.5-2.5-.5 1.5-3.5q1.25 2.25 2.5-.5l-3-1 3-5zM225.5 173l.5 6.5h-1zM731.5 173l3 2 1.5-.5-4 6-1.5 4.5-1-2-1.5 2.5 1 3-1.5-.5-2.5-.5.5-1.5 1.5-.5-2-1 1.5-.5 1.5.5 1.5-3.5 1.5.5.5-2.5 1.5-.5-2-1 .5-2.5 1.5-.5zM254.5 175l1 2-1-1-2.5 1.5.5-1.5zM306.5 175l1 2 1-2 2.5.5-3 8v2l-.5 1.5-1.5-.5.5-1.5 1.5-.5-3-1 1-2-1-2h2zM852.5 175l3 5 3.5.5-.5 1.5-1.5-.5.5 1.5 1.5.5 1.5 3.5 1-2 .5 1.5-1 2 1 3 1 5-1 5 1 2-2.5 3.5-1.5-.5.5 1.5 1.5.5-.5 2.5-2.5.5 2 1-.5 1.5-2.5-.5 1-10 2-2-1-1v-9q3.5-1.5 1-3l-.5-1.5-3.5-1.5-1-2 .5-1.5-4.5-2.5-1-3zM212.5 177l.5 20.5h-1zM516.5 177l1 2 1.5-.5-1.5 2.5-1-2-1 2-.5-2.5zM5.5 179l2.5.5-.5 1.5-2.5-.5z" opacity=".173"/><path fill="#eff5f2" d="M252.5 179q3.25 1.75-.5 3.5l.5 2.5 2.5 1.5-1 4 1 2h-1l-.5-1.5-1 2-1.5-.5q-1.5-9 1.5-13.5M761.5 180l2.5.5-1.5 4.5-1.5-.5 1 4-3.5 1.5-2.5 1.5 5 2-3 1 .5 1.5-2-1 .5 1.5-.5 1.5-1-2-1 2-2.5-.5 5.5-10.5 1.5-.5v-2zM224.5 181l.5 13.5h-1zM484.5 181l.5 2.5-1.5.5.5-1.5zM5.5 182l2.5.5-.5 2.5-1.5.5 2 1-1 3 1 2-1.5 8.5-1.5-.5 1-7-1-3 1-3-1-3zM389.5 182l1 4 1.5.5-1 2 1 2-2 1-.5 3.5-2.5.5 2 1q.75 3.75-1.5 4.5l-2.5-.5zM515.5 182l2.5.5-1.5 6.5-1.5.5.5 1.5-1.5-.5.5 1.5 1.5.5-.5 1.5-1.5.5 2 1-2 1-1.5 6.5-1.5-6.5q3.08-1.75 1.5-3.5l1.5.5-1-7zM222.5 183l.5 11.5h-1zM481.5 185l1 2 1-2 2.5.5-1 7-3 4 2 1-2.5.5-.5-4.5q2.5-1.5-1-3l.5-1.5 1 2 1.5-2.5-2-1zM645.5 186q4-.5 4.5 2.5h-2l-.5 1.5-2.5.5.5 1.5 1.5-.5 1 2h-2l-.5 1.5-1.5.5 1 5h-1l-.5-4.5-.5 5.5 2 1-2 3v2l-.5 2.5-2-1-.5 1.5 2 1 .5 2.5 1-2 .5 1.5-1.5 3.5-1.5.5-.5 1.5-2.5.5.5 4.5 1-4 .5 5.5-3.5.5-.5-3.5 1.5-4.5 1.5-.5-1-2 2-3-1-3 3-4h-2zM305.5 188l1 2 1-2 .5 1.5-1.5 4.5-1.5.5 1 2-3 1 .5 1.5 1.5.5-1 7-1.5 1.5v-2l-1.5-.5.5-4.5 2.5-.5-4-1 .5-1.5 1.5.5-1-2h2l.5-2.5 1.5-.5-2-1 2-1 .5 1.5.5-2.5zM335.5 188l1 5 1.5-.5-.5 2.5-1.5.5v2l-.5 3.5-1-3-1.5 3.5q1.25 2.75 2.5.5l1.5.5-.5 1.5-1.5.5.5 1.5-3.5-2.5 2-6-.5-1.5 1.5-.5v-2zM725.5 189l2.5 1.5-3 1 2 1-2.5.5-1.5-2.5h2zM430.5 191l6.5.5-4 1-.5 1.5-1.5.5 2 1-2 1-.5 2.5-.5-2.5.5-1.5-1.5.5q-1 5 2 6l-1.5 3.5-3.5-.5 1.5-2.5 1.5.5-.5-2.5-1.5.5zM441.5 191l3.5 1.5-.5 1.5-1.5-.5-.5-1.5zM447.5 191l13.5.5-13.5.5zM448.5 193l6.5.5-6.5.5zM358.5 194l1.5.5-5 23-2 2 1 3-2 1 1 3-2.5.5-.5-1.5 2-1-2-1 1.5-2.5 1.5-.5-2-1 .5-2.5 2 1 .5-1.5-4-2 2.5-.5 2.5-.5-2-1v-3q3.65-1.85 4-7l-2-1 .5-5.5zM723.5 194l2.5.5-15.5 30.5-1-2-1 2-1.5.5 2 3-5.5 9.5-1.5-.5 1 3-3.5 1.5-.5-1.5 3.5-4.5 1.5.5-1-3 .5-4.5 1.5.5.5-1.5 1.5-.5-.5-1.5-3.5.5q1.56-4.94 8-5l-2-1 2-4q-3.75-1.75-.5-3.5l2 1v-2l1.5-.5.5-2.5 1 3 1.5-2.5-.5-1.5 1.5.5-.5-1.5-1.5-.5.5-1.5 2 1 1.5-2.5-1.5.5-2.5-.5 3-1q-.5-4 2.5-4.5l1.5.5-.5-1.5-1.5-.5.5-1.5zM558.5 195l1.5 3.5v2l-1.5 5.5-1.5-.5.5 1.5 1.5.5-2.5.5-.5-6.5q3.05-1.45 2.5-6.5M437.5 196l3.5.5-3.5 1.5zM222.5 197l1.5.5v2l-.5 5.5-1-6-.5 9.5h1l.5-2.5.5 3.5-1.5.5-1.5-1.5v-9zM399.5 197l.5 4.5h-1z" opacity=".173"/><path fill="#eff5f2" d="m353.5 198 .5 3.5h-1zM210.5 199l.5 19.5h-1z" opacity=".173"/><path fill="#eff5f2" d="m212.5 199 .5 19.5 1 2-1 2v2l1 3v2l-1 3v2l1 4-1 1-.5 19.5-1-19-1 3-.5-3.5v-2q-.75-4.25 2-5l-2-4h2l-2-4 .5-2.5 1.5-.5zM480.5 199l.5 3.5-1.5.5.5-1.5zM751.5 199l3.5.5-1.5 4.5-4.5.5.5 1.5 1.5-.5 1 3h-1l-.5-1.5-1 3-2.5.5.5 1.5q1.25-2.25 2.5.5l-.5 1.5-3.5.5 1 3h-2l-1 2v2l-.5 1.5-1.5.5.5 1.5-1.5.5 1 4h-1l-.5-3.5q-2.75 1.25-.5 2.5l-.5 1.5-3.5.5 3 1-.5 1.5-3.5.5 3 2h-2l-1 2 .5 1.5-3.5 1.5 2 3-4 1 1 4-2 1 1 3-3 1 .5 1.5 1.5-.5-1.5 2.5-1-2-2.5 3.5.5 1.5-3.5 1.5 2 5h-2l-.5 1.5-4.5-.5 2-1 7.5-16.5 1.5-.5 7.5-17.5 1.5-.5q-2.25-1.25.5-2.5l1.5-.5v-2l1.5-3.5 1.5.5-1-3 9.5-18.5 1.5-.5zM774.5 200l3 1 1.5-.5-2 4-.5 2.5-3.5-2.5zM6.5 201l1.5.5-.5 2.5-2.5-.5zM386.5 202l1.5.5-2 5 1 2-1 2 1 2h-1l-.5-1.5-1 2-1.5.5.5 1.5 1.5-.5-.5 2.5-2-1-.5 1.5 3 1-3.5.5-.5-2.5q3.56-5.44 3.5-14.5l1 4zM510.5 202l1 2 2.5 1.5v2l-.5 2.5-1-3-1 3-2.5.5 4 2-1.5-.5-1.5.5 1.5 2.5-1.5-.5-.5 2.5-2.5.5q1.25 4.75-1 6l3 5h-1l-.5-1.5-1 2-2.5-.5 4.5-19.5 2.5-.5-2-1 2-3zM479.5 204l2.5.5-.5 2.5-2.5-.5zM5.5 205l1.5.5-1 2 2 3-1 2 1 3v2l-1 6 1 2-2.5.5-.5-1.5v-2l1-3v-6l-1-3v-2l1-2zM249.5 206l2.5.5-.5 1.5zM426.5 206l2.5.5-2 1 2 1-.5 1.5-1.5-.5zM333.5 207l1.5.5-2.5 6.5-.5-5.5zM395.5 208l2.5.5-2.5 10.5-1.5.5 1 4q-1.5 3-3 0l1.5-5.5 1.5-.5-.5-1.5-1.5.5 1.5-3.5 1 2 .5-2.5-2-1zm-1.5 12-1 4h1zM478.5 208l2.5.5-.5 3.5-2.5-1.5zM773.5 208l2.5.5-1.5 5.5-1-5-1 4-.5-3.5zM252.5 209l.5 1.5-4.5 10.5-.5-1.5 2-5-1-2h2zM300.5 209l1 2 1-2 .5 1.5-1.5 5.5-2.5-.5q-.75-4.75 1.5-6.5m.5 2-1 4h1zM556.5 209l1.5.5-1.5 3.5-2.5-.5zM330.5 210l1 6 1.5-.5-1 2q2.5 1.5-1 3l-1 3 2 4h-2l-.5 1.5-1.5-.5-.5-1.5-1 2-.5-1.5 1.5-5.5 2.5-.5-2-1zM425.5 210l1 2 2-1 1 2-1.5-.5 1 2-1.5 2.5h-2l-1.5.5 2 1-2 1 .5 2.5 1-2 .5 1.5q-3.5.5-3 5h1l.5-1.5.5 2.5-2 6 1 2h-1l-.5-1.5-1 2-2 1-.5-1.5 1.5-3.5 1 2 .5-2.5-2-1 2-3v-6zM222.5 211l.5 3.5-2.5 1.5-.5-3.5zM477.5 212l1.5.5 1 3-2.5 5.5-1.5-3.5 2-1zM556.5 214l.5 1.5-2.5 9.5-1.5-8.5 3-1zm-1.5 2-1 4h1zM770.5 215l3.5 1.5-3 11-1 15 1 3-1.5.5-2.5-.5v-12l1.5-1.5 1.5.5-.5-2.5-2.5-1.5h2l.5-1.5 1.5-.5-.5-2.5-2-1-1.5.5 1.5-3.5 1 2 1.5-2.5v-2zm-1.5 21-1 6h1zM856.5 215l1 5 1-5 1.5.5-2 5 .5 1.5-1.5-.5-.5 3.5-1.5.5 2 1-1.5 3.5-1.5.5 2 1-1.5 2.5-1.5.5.5 1.5 1.5-.5-2.5 4.5-2.5-1.5 4.5-14.5 1.5-.5-1-3zM218.5 217h2l2.5.5-1.5 14.5-1.5-2.5q2.5-1.5-1-3l.5-1.5 2.5-.5-4-2 1-3zM297.5 217l3.5.5-3.5 1.5zM296.5 220l3.5.5-.5 1.5-3.5-.5zM381.5 221l2 1 1.5-.5-3.5 1.5-1.5-.5zM475.5 222l1 2 1-2 .5 2.5-2 1 1 3h-1l-.5-2.5-2 1 .5-1.5zM299.5 223l.5 1.5-2 1v2l-.5 8.5-1.5-.5-1-7 1-3-.5-1.5zm-2.5 7-1 4h1zM380.5 224q2.25.75 1.5 4.5h-1l-.5-3.5-.5 5.5h2v2l-.5 1.5-1-2-1 2-1.5.5 2 1-.5 1.5-1.5-.5-.5-1.5-1 4-1.5-.5zM551.5 224l1.5.5 1 3-2 1 1 4-1.5-.5-1.5-.5.5-1.5 1.5-.5-2-1 .5-1.5 2.5-.5-4-1z" opacity=".173"/><path fill="#eff5f2" d="m393.5 226 .5 1.5-3 8 .5 1.5-2.5-1.5q-.75-3.75 1.5-4.5l1.5-.5-2-1 .5-1.5 2.5-.5zM5.5 227l2.5 1.5q1.75 6.25-1 8v2l1 3-2.5.5-.5-11.5-1-1zM635.5 227l2 1q1.25-2.25 2.5.5l-.5 1.5-1-2-1 2-2.5-1.5zM351.5 228l-.5 1.5-.5 3.5-1-3-1.5 3.5 1 3-5.5 5.5-1-1-1.5.5.5 1.5q-1.5-2.5-3 1-5.25 1.25-6.5-1.5 1.62-2.88 7-2l.5-1.5 1 2 1-3 2 1 3.5-1.5-4-1 .5-1.5h2l2 1 .5-1.5-3-1 3-1 1.5-3.5zM334 242v1h5zM472.5 228l2.5.5 1 4-1.5.5-2.5-.5.5-1.5 2.5-.5zM440.5 230l1.5.5-.5 2.5-1.5-.5zM504.5 230l2.5.5-.5 2.5-1.5.5.5 1.5q-1.25-2.25-2.5.5l4 1-.5 1.5-4.5-.5 2-4zM634.5 230l2.5 1.5-.5 4.5-1.5-.5-.5-1.5-1.5 3.5h2l-1 2 .5 1.5-1.5.5-.5 1.5-1.5.5 2 3-3 1-2.5 6.5-3.5 1.5-.5 1.5-1.5.5.5 1.5-1-1-3.5 3.5q2.25 1.25-.5 2.5l-1.5-2.5 2-1-1-1 4-4 1.5-2.5 2.5-1.5 5-7v-3zM468.5 231l2.5.5-.5 1.5-2.5-.5zM638.5 231l.5 3.5h-1zM219.5 233l2.5.5-.5 3.5-1-2-1.5.5zM472.5 234l2.5.5-1.5 7.5-1.5.5 1 3h-1l-.5-2.5-1 3-.5-3.5 3-2-2-1 1.5-2.5 1.5-.5-2-1zM899.5 234l.5 5.5h-1zM267.5 235l1 4 1-4 .5 3.5v2l-.5 1.5-1.5-.5q-1.25 4.75 1 6h-2l-.5 1.5-1.5.5q.6 4.6-2 6 3.75 1.75.5 3.5l-4.5.5 5 2-2.5.5-1.5.5-.5 3.5-1.5-.5-1.5 2.5-3.5-.5 4-3q.25-5.75 3.5-8.5l1.5-.5-2-1 3-1-1-3 2-1-1-3 2.5-3.5 1.5-.5-2-1zm-1.5 10-2 2 1 2v-1l2-1zM326.5 235l1 2 3-1v1l-1.5.5 2 1-.5 4.5-4.5-4.5zM552.5 236l.5 4.5h-1zM297.5 237l.5 3.5h-1zM219.5 238l2.5.5-.5 1.5-2.5-.5zM429.5 238l12 1h2l3-1v1l-1.5.5 2.5 1.5 15.5.5-15.5.5-2-1-2 1h-2l-12-1-1 1h-10v-1l10.5-.5-10-1 9.5-.5zm3.5 2v1h7z" opacity=".173"/><path fill="#eff5f2" d="m458.5 238 3 1 1.5-.5-.5 1.5-14.5-.5 9.5-.5zM513.5 238l2 1 29.5.5-30 1 29.5.5 1 1q1.25-2.25 2.5.5l-3 1 .5 1.5-2-3h-28l-2-1-1 1h-10q-3-1.5 0-3h10zm-10.5 2v1h10zM374.5 240l2.5 1.5-1.5 3.5-2.5.5 2 1-3.5 6.5-1.5-.5-.5 3.5-4.5.5 4 1-3.5 1.5-2-1-1.5 3.5 2 1-2.5 1.5-1.5-1.5.5-2.5 1.5.5q-.5-5 3.5-5.5l3.5-.5-.5-1.5-1.5.5 2.5-3.5q1.25 2.25 2.5-.5l-2-1zM388.5 240l2.5.5-.5 1.5zM849.5 240l2.5 1.5.5 2.5 1.5.5-1.5.5q-1.25-2.25-2.5.5l.5 1.5-4.5-.5 3-3v-2zM219.5 241l2.5.5-1.5 5.5-2.5-.5.5-1.5 1.5.5zM297.5 242l.5 3.5h-1zM464.5 242l.5 5.5h-1zM5.5 243l2.5.5-1 7 1 1v10l-2.5.5-.5-10.5v-2l.5-2.5 1 2 .5-2.5-2-1zm1.5 8-1 10h1zM462.5 243l.5 5.5h-1zM699.5 243l1.5.5-1.5 2.5zM210.5 244l.5 10.5h-1zM543.5 245l3.5 2.5-3.5.5zM385.5 246l1.5.5-2 1 .5 3.5 1-3 2.5 1.5h-2l1 5h-1l-.5-2.5-.5 3.5v4l-.5 4.5-2.5-.5-1-3 2-1 1-5q-2.5-1.5-1-7zM296.5 248l2.5.5-.5 2.5-2-1-1.5.5zM550.5 248l4.5 2.5 3.5 9.5 1-1 3 3 5.5 3.5.5 1.5 2-1 .5 1.5-5.5 1.5-1-3-1.5.5-1-2 1.5.5 1.5-.5-3.5-2.5-5 1-2-11-2.5-.5-.5-2.5zM694.5 248l.5 3.5h-1zM696.5 248l2.5.5-2 1-.5 3.5zM845.5 248l3.5.5-2.5 5.5-2.5.5 2 1-2.5 1.5-1.5-.5-.5 1.5-4 2-1.5-.5.5 1.5 1.5.5-.5 1.5-3.5-.5v-2l4.5-4.5 1.5-.5 1.5-2.5 2.5-.5q-2.5-1.5 1-3zM468.5 249l2 1 1.5-.5q-3.5 1.5-1 3 .75 3.75-1.5 4.5v-2l-1.5-.5zM543.5 249l2.5.5-.5 1.5-1.5.5 2 1q-3.9 4.1-3 13l-1.5 1.5q-1.25-2.25-2.5.5 2.25 1.25-.5 2.5l-5.5-.5 6-1-6-1q5.38.87 7-2l.5-6.5 1 7 .5-7.5-1-2h1l.5 1.5.5-2.5-1-3zM461.5 250l2.5.5-.5 1.5-2.5-.5zM691.5 251l3.5 2.5-.5 2.5h-2l-1.5-.5 1-3zM769.5 251l3.5.5-.5 1.5h-2l-1.5-.5zM297.5 252l3.5 1.5 1 3q-1.25 2.75-2.5.5l-2.5-1.5.5-1.5-1.5-.5zM460.5 253q3.75-.75 4.5 1.5l-.5 1.5-1-2-1.5 6.5 1 2h-1l-.5-1.5-.5 4.5h2l-.5 1.5-5.5.5q2.25 1.25-.5 2.5l-1.5-.5 2-1-2-1 3-2 1.5-6.5 1 2 .5-4.5z" opacity=".173"/><path fill="#eff5f2" d="m553.5 253 .5 3.5h-1zM769.5 254l2 1 1-1 3.5 3.5 2 3-2 1-.5 1.5-2.5-.5.5-1.5 2.5-.5-.5-1.5-2-1-2 1v-1l1.5-.5-3-1zM626.5 255l1.5.5-2.5 1.5zM691.5 257l2.5.5-2.5 4.5-.5-2.5zM302.5 258l2.5 1.5 1.5 2.5 4.5 2.5-2 1 2.5.5 1.5-.5-.5 2.5-6.5-.5 2-1q-4.69.19-6-3l.5-1.5-1.5-.5zm3.5 4-3 2h2l1 1zM689.5 259l.5 2.5-.5 1.5 1.5.5-1.5.5q-2.75-1.25-.5-2.5zM210.5 260l1 6 1-5 .5 4.5-2 8 .5 1.5-4 1 .5-1.5 2-3-1-3q3.5-1.5 1-3zM215.5 260l4.5.5-.5 1.5h-2l-2.5-.5zM358.5 261l.5 2.5-1.5 1.5-1.5-.5 2-1-2-1zM614.5 261l-1 3 2.5.5-.5 1.5h-2l-7 2-.5-2.5zM832.5 261l.5 2.5-.5 1.5-1.5.5-.5 1.5-2-1-5 3v-3zM468.5 262l.5 1.5-1 2 1 2-1.5.5-.5-3.5zM777.5 262l5.5 2.5-.5 1.5 3-1 2.5 1.5-3 1q2.25 1.25-.5 2.5v-2l-3.5-1.5-.5-1.5-2 1v-2l-1.5-.5zM219.5 264l1 3 1.5.5-2.5.5zM353.5 264l1.5.5-.5 3.5-1.5-.5zM686.5 264l1.5.5-.5 2.5-1.5-.5zM351.5 265v3l-2-1-1 3-1.5-.5 2-1-2-1zM6.5 266l2.5 1.5 1 7 2 2q-1.5 3-3 0l-2-4 1-3-2-1zM314.5 266l3.5 1.5-2.5.5zM383.5 266l2.5 1.5-1.5.5zM345.5 267l-1 2-1.5-.5zM480.5 267l3.5.5-3.5.5zM818.5 267l3.5.5-3.5.5zM321.5 268l2.5.5-1 2 1.5-.5 4-1v1l-2.5.5 3 1-5 1 2 1-1.5.5-3.5-1.5.5-1.5-1.5-.5zM339.5 268l2.5.5-3 1-.5 3.5-2-1-2 1-4.5-1.5 3-1-3-1 2.5-.5 5 2v-2zM812.5 268l2.5.5-.5 2.5-1-1h-9v1q6-1.5 7.5 1.5l-1.5-.5-8 1-1.5-1.5.5-2.5h10zM572.5 269l3.5.5-.5 2.5-1.5-.5-.5-1.5-1.5.5zM581.5 269l2 1q1.5-2.5 7-1v1l-6.5.5 7 1-6.5.5zM816.5 269l4.5.5-2.5 3.5-2.5-.5z" opacity=".173"/><path fill="#eff5f2" d="m4.5 270 2.5.5-2.5 1.5zM577.5 270l2.5.5-.5 1.5-2.5-.5zM594.5 270l3.5.5-3.5.5zM899.5 272l.5 7.5h-1zM897.5 273l.5 6.5h-1zM474.5 276l2.5.5-.5 2.5-2.5-1.5zM207.5 277l2.5.5-.5 1.5-1.5-.5 1 2h-2l-.5 1.5-2.5 1.5-.5 3.5-2 1-1-2-1 2-2.5.5 3 1-2.5 2.5-7.5.5 5 1-12.5 3.5-.5-1.5.5-1.5-39.5-.5 41.5-.5v2l5.5-1.5q-2.25-1.25.5-2.5h2l12.5-9.5-1-1zM220.5 277l8.5 2.5-4 1 4.5.5 2-1q1.67 3.33 7.5 2.5l-.5 1.5q-4.62-2.87-13-2-.75-2.75-5-2v1l2.5.5-6 2v66l-1 1 1 1v10l2.5 3.5 3-1q4 3 12 2v-1l-5.5-.5 9-2-1-1v-10h1l.5 7.5.5-19.5-1-2v-2l1-2-2-1 1.5-2.5 3.5.5-4 1 4 1-2 1 1 2v2l-1 2v21l1 2-4 2 .5 1.5-2.5.5 2 1-1.5.5q-1.25-2.25-6-1l-3 1-4-1-1.5.5-.5-1.5-4 1-3.5-4.5 1-1v-10l-1-2 1-1 .5-62.5 1 63 .5-63.5-2-1 .5-1.5 1.5-.5-2-1 3.5-1.5v1l-1.5.5 3.5.5-.5-1.5.5-1.5 4.5-.5q-4.37.38-3.5-1.5m-4.5 75-1 8h1zM334.5 277l1 1h10l1.5 1.5q-2.37 2.63-8.5 1.5v-1l4.5-.5-14.5-.5v1l4.5.5-13.5 3.5-3-1-1 3h-2l-5.5 4.5-1.5 2.5-1.5.5 1 1-4 4-1.5 2.5-1.5.5v2l-2 4-.5 5.5-1-4-.5 5.5 1 1v11l1 2h-2l.5 5.5 1-4 .5 4.5-1 5h1l.5-2.5 2 7 2.5 1.5 5.5 8.5 9.5 6.5.5 2.5 3-1 1.5 2.5-.5 1.5 21 1 7.5-2.5.5-1.5 2-1 1.5.5.5-1.5 2-1 1.5.5 4.5-5.5 5.5-3.5q-2.75-1.75 1.5-3.5l1.5-.5-1-1 3.5-3.5 1.5.5-1-2v-2l1.5-4.5 1.5.5-1-4 2-6-1-1v-8l2-1-3-1 1-3 .5-1.5 3.5 8.5q-3.5 1.5-1 3l-1 4 1 5-4 10 1 3-5 4-3 4 .5 1.5-2.5 1.5-.5 2.5q-1.25-2.25-2.5.5l.5 1.5-2-1-1 2-4 2-1.5-.5-.5 1.5-1.5.5 2 1-8 2 5 1-7.5.5h-15l-2-1q-1.25 2.25-6 1l-5.5-3.5-1.5-4.5-5 1-4.5-2.5-1.5-3.5-2.5-1.5-1.5-5.5-1.5-.5-1.5-3.5q-1.25 2.25-2.5-.5l1-3-2-7v-7l-2-2 2-10v-2l2-7-.5-3.5 1.5.5.5-1.5 1.5-.5-2-1 7-6 2.5-4.5 1.5-.5.5-1.5 2.5-1.5.5-2.5 12-3 4 1v-1l-2.5-.5zm-13.5 4v1h3zm-26 34-1 8h1zM405.5 277l4.5 1.5-3 1 4.5 1.5 1-3 5 1 1-1h10q1.5 2.5 7 1l2-1 3.5 1.5.5 2.5 4.5.5-.5 1.5 1.5.5-.5 12.5-1-7-1 10-9.5.5 6 1-16 1-1.5 3.5-1.5.5 2 1 1 5-1 2 1 2-1 5 1 2v2l-.5 38.5-1-33-1 34-4.5 1.5 3 1-2.5.5q-1.5-2.5-7-1h-2l-7-1-1.5.5.5-1.5-2.5-.5 2-1-2-1-1-2v-24l2-5h-2l1-13-1-4v-2l1-4v-2q.5-5-3.5-5.5l-1 1h-14v-1l4.5-.5-5-1 18.5-.5 1.5 2.5-.5 1.5 1.5.5-1 5 1 3-1 3 1 4q-2.5 1.5-1 7l1 2v2l-1 5 1 2v2l-.5 2.5-1-3-.5 9.5h1l.5-5.5.5 19.5 1.5 1.5 8 2q1.75-2.75 8-1l2.5-2.5 1-5v-26l1-1v-2l-2-10 1-2-1-2h1l.5 1.5.5-5.5h-1l-.5 1.5-.5-5.5 2-1-1-3 8-1-7-1 21-1-.5-15.5-7-2q-1.5 2.5-7 1l-1-1q-8.17 1.67-12-1l-6 2-4.5-1.5-.5-1.5-2.5-.5zm7.5 2v1h3zm7 0v1h9zm10 1v1h6zm-30 69-1 12h1zm5 16v1h5zm7 0v1h6zM12.5 278l3 6 1.5.5-.5 1.5 3.5.5.5 1.5 9.5 4.5.5 1.5 2-1h59l1 3 1-1h27l2.5-.5-30-1 39.5-.5v1l-6.5.5 7.5 1.5q1.75-2.75 8-1v1q-6.25-1.75-8 1l-10-2-1 3-2-1-1.5.5-.5-1.5h-25l-1 1h-2q-7.1-2.4-18-1l-1 2 1.5.5v11l-2.5 3.5-3.5 1.5 2 1q-5.2 3.3-15.5 1.5l-2.5-.5 1-2-1.5-2.5-1.5-.5-.5-1.5-1 2-.5-1.5 1-1 .5-11.5 2.5-.5-1.5-1.5h-9q-1 3-6 2-1.5-3.5-3-1l-2.5-.5 3-1-8-2 5-1q-8.35.35-12.5-3.5l-1.5.5.5-1.5 2.5-.5-2.5-1.5-3.5.5.5-2.5 1.5-.5-5.5-1.5-2 1-.5-1.5 5.5-1.5 1.5.5zM33 294v1h22l1 1 4-1 2 1h-1v2l-1-1-8 1-3 4 2 1-1 2 1 5v2h2q4 2 1 4h10l4-4 1 1q2-1 0-2 3-4 1-11l-3-2q-2-3-4-1l2-2h22zm34 2v1h4zm5 10-1 4h1z" opacity=".173"/><path fill="#eff5f2" d="m390.5 278 6 1 4-1 2 3 2-1-1 2-6-1-1.5.5-.5-1.5-3 1q-1.5-2.5-3 1l-3.5-.5 4-1-6-1zm7.5 1v1h3zM457.5 278h8q1.75 2.75 8 1l4 2h8v-1l-7.5-.5 8.5-1.5 1 1h8q1.25-2.25 6-1h2l6.5 2.5-2.5.5-1.5-.5-.5 1.5-2-1h-2l-5 1h-19l-2-1-4 1v-1l2.5-.5-7.5-.5v1l2.5.5-3.5.5q-1.75-2.75-8-1l-3 1v-1l2.5-.5-2-1zm.5 1v1h8zm40 0v1h4zm-10 1v1h7zM525.5 278l7.5.5-8 1 2 1-8 4 1 1v67l-1 2 1 3v2l1.5 3.5 3 2 1-1h34l9 1q1.5-2.5 7-1l1.5-1.5 1-3v-2l2-4h-2l1-2-1-3h1l.5 1.5 2-3-.5 1.5-1 4h1l.5-1.5.5 1.5-2 3 1 2-2.5 7.5-8.5.5 7 1-10.5.5h-2q-4.75 1.25-6-1-1.5 3.5-3 1l-17.5-.5 18-1-28.5-.5v1l9.5.5-9.5.5-1 1v-2l-5 1-1-2-2.5-1.5-2-17 1.5-.5 1 6 .5-37.5h-1l-.5 30.5-1-20-1.5-.5.5-1.5 1.5-.5v-39l1.5-1.5h2l2.5-.5-3-1q4.25.25 5.5-2.5m-6.5 7-1 27h1zm41 80v1h5zM268.5 279l3 2 1-2 8.5.5.5 1.5 4-1v1l-3.5.5q5.5-.5 7 3l1 4-1 1v42l1 2-1 3-.5 28.5-3.5-.5 1-1 .5-12.5 1 13 .5-26.5h-1l-.5 5.5-.5-6.5 1-3-1-2v-47l-1.5-1.5q-4.75-2.25-13-1l-5 1v-1l4.5-.5-3-1zm19.5 11-1 42h1z" opacity=".173"/><path fill="#eff5f2" d="m452.5 279-.5 3.5-.5 1.5-1.5-.5.5 4.5 1-2 .5 1.5-2 2v12h1l.5-8.5.5 9.5-1 3 1 2h-1l-.5-1.5-.5 7.5h1l.5-3.5.5 4.5-2 1q-1.33 6.83 1 10l-1 2h2l-1 4 1 4h-1l-.5-2.5-.5 4.5 2 1-2 11h1l.5-2.5.5 2.5-2 8h1l.5-2.5.5 3.5v2l.5 2.5 3 1h10l1 1 1-1h40l2-1q1.25 2.25 2.5-.5l-.5-3.5-1 2-.5-1.5 1-1v-12l-40-1 .5-10.5 1 8 .5-9.5-.5-1.5 21-1 3 1 2-1h2l5.5 1.5-9.5 1.5h-2q-6.25 1.75-8-1h-2l-10.5.5.5 9.5h36l3.5 3.5q1.38 8.88-1 14l1 4-2.5.5-1.5.5.5 1.5h-53l-1-1-3 1v-1l2.5-.5-4-1-.5-1.5-2.5-.5-1-4 1-3-1-5q2.25-1.25 1-6l-1-4 1-2-1-2 .5-1.5-1.5-.5.5-1.5 2.5-1.5-.5-2.5-1.5-.5v-2l1-3v-2q1.25-4.75-1-6l1-1v-8l-1-4 1-1v-11l-1-2v-2l1.5-4.5 2.5-.5q-2.25-1.25.5-2.5m-2.5 23-1 4h1zm38 30v1h6zm-13 12v1h19zm22 0v1h14zm16 3-1 11h1zm-55 18v1h8zm10 0v1h41zM350.5 280l3 1 1-1 3 3 10 7 2-1 .5 1.5v2l.5 2.5 1.5-.5.5 4.5 1-2 1.5.5-.5 1.5 1.5.5-.5 1.5-2-1-1.5.5-2-3 .5-1.5-1.5-.5-.5-1.5-6.5-5.5q2.25-1.25-.5-2.5l-1.5.5.5 1.5-3.5-2.5 2-1-2.5-.5h-2l-4.5-1.5 2-1zM530.5 280q4.75-1.25 6 1l3-1v1l-6 1-3-1zM380.5 281l4.5.5-4.5.5zM264.5 282l1.5 5.5-1 3 1 15-2 3q3.75 1.75.5 3.5l-19.5-.5 20-1-26.5-.5v1l5.5.5-5.5.5-1.5-1.5v-25h1l.5 23.5 1-24 1 24 20.5-.5q3.2-2.3 2-9v-2l-1-7 1-3 1-3q-2.25-1.25.5-2.5m-.5 8-1 6h1z" opacity=".173"/><path fill="#eff5f2" d="m507.5 282 2.5.5.5 1.5q1.25-2.25 2.5.5l-1 2q2.25 1.25 1 6l-1 2 1 3h-1l-.5-2.5-2 7h-34l-1 1-1.5-.5.5 1.5 1.5.5-1 4 15 1-16.5.5.5-1.5-1-9 35.5-.5 1.5.5 2-6-1-2h1l.5 1.5.5-5.5h-2q.75-3.75-1.5-4.5zM474 300v1h12zm26 0v1h6zM538.5 282q3.75-.75 4.5 1.5l.5 59.5 6.5.5-7 1 32.5.5v-1l-20.5-.5 20.5-.5 3.5 1.5-3 1 4 1-3.5.5-1-1-33.5-.5-.5-1.5-1 2-1-63zm3.5 1-1 60h1zM376.5 285l1.5.5-.5 6.5-1-5-1 4-1.5-4.5h2zM707.5 286l2.5.5-1.5 3.5zM136.5 293l5.5.5-5.5.5zM375.5 293l2.5.5 1 5-1.5.5.5-1.5-.5-1.5-2.5-.5zM724.5 293l5.5 3.5 2 3v4l4 5v2l.5 2.5 1.5.5-2.5 1.5-2.5-4.5v-2l-.5-1.5-2.5-1.5q-.35-6.65-4.5-9.5l-3.5 1.5-2.5 6.5-1.5.5q2.5 1.5-1 3l-.5 2.5-1.5-3.5 2-2 2.5-7.5 2.5-.5-.5-1.5zM813.5 293l1 3 2.5.5.5 1.5 1-2 4 9 2-3 2.5 1.5-.5 2.5-3.5.5 2.5 6.5 11 1 2-1 4 2 2-1q4.25.75 3.5 6.5l-2.5 5.5q-1.25-2.25-2.5.5 2.25 1.25-.5 2.5l-7.5 5.5-.5 1.5-3.5.5 2 1-1 2 1.5 6.5q-.6-4.6 2-6v2l1.5.5-.5 1.5-1.5.5 2 10-2.5 3.5-2.5.5q2.25 1.25-.5 2.5l-10-4-8-6h-5v1l3.5.5q-5.13-.12-6.5 3.5l-.5-2.5 3.5-3.5 3-1 2 1 2-1 12.5 8.5-.5 1.5 5.5-2.5 1-3-.5-1.5 1.5-.5-2-2-3-13 7-6 .5-1.5 6.5-4.5.5-3.5 1.5-.5-8.5-5.5h-4q-1.5 2.5-7 1v-1l6.5-.5-7.5-.5-2 1-4.5-10.5 1-2-3-1-1.5-4.5-2-1-4.5 3.5q.62 5.12-2.5 6.5l-1.5-.5 1 2-3.5 7.5q-1.5-2.5-7-1v1l5.5.5-6.5.5-1-1h-9v1l8.5.5-8.5.5-1.5 1.5v5l8.5 8.5 1.5.5-1 2 3 1q1.05 7.05-1.5 10.5l-1-3-.5 5.5h1l.5-1.5.5 1.5-1.5 4.5-1-4-.5 6.5h1l.5-1.5 2 4 6-2 2 1 1-3 .5 2.5-1.5 1.5-6 3h-3v-1l3.5-.5q-5.5.5-7-3l1-13 2-4-1-4-4.5-4.5-2.5-.5 3-1-5-1-2-4 1-4-1.5-2.5 1.5.5.5-1.5 1.5-.5q-2.25-1.25.5-2.5l16-1 2.5-1.5-2-1 7.5-14.5 4.5-.5-3-1zm31.5 23q-3 2 0 3l1-2zM634.5 294l3.5.5-4 1 4.5 1.5q1.25-2.25 2.5.5l.5 5.5 1-4 1 5 1.5-.5 2 7 2.5 2.5q11.53-1.53 17.5 2.5l.5 4.5 1-3 1.5 6.5-2.5 3.5-1-2-2 4-.5-2.5 3-3-1.5-6.5q-5.67.67-8-2-1.25 2.25-6 1v-1l5.5-.5-8.5-.5-2 1-6.5-12.5-.5-4.5-1.5.5-.5-1.5-4 1-1.5-.5 1 2-3.5 5.5-1.5-.5 1 2h-2l1 2-1.5 3.5-1.5-.5.5 2.5 1.5-.5-2.5 2.5h-9l-2-1v2l-2-1-6.5 4.5-1 3h2l-.5 1.5 6.5 5.5-.5 1.5 2-1 5.5 5.5v4l-4.5 8.5-1.5-2.5h1l.5 1.5 1.5-11.5-2-1-.5-1.5-7.5-6.5.5-1.5-2.5-.5q-2.83-2.67-2-9h1l.5 2.5 1.5-3.5-.5-1.5 2 1 6-2h2q8.5 2 10.5-2.5v-3l4.5-7.5 2.5-.5-1-2zM616 314v1h9zm-8 1v1h3zm54 0v1h3zM143.5 295h13l1 1 1-1h22l.5 1.5-5.5.5-5-1-2.5.5.5 1.5 2.5.5-.5 2.5-1.5.5 3 1-3 2 .5 1.5 1.5-.5-.5 2.5-1.5.5 2 3h-1l-.5-1.5-2 5h-2l-1.5.5 2 1q-3.56 3.44-11.5 2.5h-2l-1.5-.5 2-1-3.5-1.5-1.5.5 1-2-.5-1.5 1.5-.5-4-1 .5-13.5 8-1v1l-5.5.5v12l2.5 3.5 2.5 1.5-.5 1.5 7-1 3 1v-1l-1.5-.5q8.08-2.92 6-16l-4-2 3-1-3.5-.5q-1.25 2.25-6 1l-1-1h-10q-4 .75-3-1m4.5 5-1 7h1zm8 17v1h5zM374.5 302l1.5.5 2 5h-2l-.5 1.5-2.5-5.5zM89.5 303l1.5.5-.5 2.5-1.5-.5z" opacity=".173"/><path fill="#eff5f2" d="m486.5 303 8.5.5-8.5.5zM825.5 307l3.5 1.5-3.5 1.5zM491.5 309l9.5.5-9.5.5zM714.5 309l1.5 4.5q-2.54 3.96-10.5 2.5l-1-1h-8v1l6.5.5-6.5.5-1.5 1.5-1 4 3.5 5.5 1.5-.5-.5 1.5q5-.5 5.5 3.5l-.5 1.5 2.5.5-2 1 3 1v7l-2.5 7.5-1.5.5 2.5 7.5 2-1 2.5 1.5-4.5 1.5-2-3-1.5-.5-1-5 1.5-4.5 1 2 .5-2.5-1-3q2.75-1.75 1-8l-3.5-4.5-1.5-.5 2-1-3.5-.5-5.5-5.5-1-3 1.5-3.5 1 2 1-3 1.5-.5q-2.25-1.25.5-2.5l16.5-1.5zm-8.5 5v1h7zm0 23-1 7h1zM472.5 311l28.5.5-28.5.5zM506.5 312l1 2 1-2 .5 1.5-1 1v13l-1 1 2 1-.5 1.5-2.5-.5 1-3q.81-10.94-.5-15.5M739.5 313q4.75-1.25 6 1h2q5.75-.75 8.5 1.5-2.75 2.25-8.5 1.5v-1l5.5-.5-7.5-.5q-1.25 2.25-6 1zm2.5 1v1h3zM509.5 315l.5 12.5h-1zM451.5 316l.5 4.5h-1z" opacity=".173"/><path fill="#eff5f2" d="m754.5 317 3 1 1.5-.5q-2.5 1.5 1 3l-6.5 9.5-1.5.5.5 1.5h-2l-5.5 4.5 3 11-2 1 .5 3.5 1-3 1.5 5.5-2.5 4.5-4.5.5 3 1-3.5.5-11.5-6.5-.5-1.5-5-1-8.5 2.5 2 1-6.5 3.5-2.5-1.5 1.5-.5 3 1v-1l-1.5-.5 12.5-7.5 4.5 1.5-4 1 6.5.5 8.5 5.5-.5 1.5 5.5-2.5.5-1.5 1 2 .5-2.5q-2.6-1.4-2-6l1-5h-1l-.5 2.5-2.5-6.5 2-1-2-1 7.5-8.5 3.5-1.5 2.5-4.5 2.5-.5-2-1 .5-1.5-1.5-.5zM53.5 318l12.5.5-12.5.5zM10.5 322l2.5.5-.5 1.5-2.5-.5zM662.5 327l.5 1.5-1.5 3.5-4.5 2.5-1 5 1 5 2 2v4l-2 1 1-4h-1l-.5 2.5-1.5-5.5 1-3h-1l-.5 1.5-.5-2.5 1-2-2-1 7.5-8.5 1.5-.5zM243.5 330l21.5.5-1 14 1 1v12l-1 4h2l-.5 4.5-2.5-3.5-1-9v-2l1-7-1-5-.5-6.5-18.5-.5 21-1-20.5-.5zm20.5 3-1 6h1zm0 13-1 5h1zm0 7-1 5h1zM480.5 330l4.5.5-4.5.5zM168.5 332l.5 2.5-2-1zM150.5 333l1.5.5-.5 2.5-1.5-.5zM153.5 333l1.5.5-.5 2.5-1.5-.5zM237.5 340l.5 4.5h-1zM286.5 344l.5 5.5h-1zM634.5 349h2q4.75.25 6.5 3.5l-.5 1.5 2-1 5.5 3.5-.5 2.5-5.5-2.5 3-1q-5.74.24-8-3l2-1-2.5-.5-2 1-1-1-4 4-3-1-1 3-7.5 1.5 3 1-6.5 1.5-3-4 6 1zM617 359v1h3zM612.5 350l1 3 1-3 .5 3.5-.5 2.5-3.5-1.5zM651.5 358l5.5 1.5-4.5 1.5zM899.5 360l.5 4.5h-1zM267.5 363l1 1 15.5.5-8 1 7 1-14.5.5q-2.5-1-1-4m1.5 2v1h6zM333.5 365l8.5.5-8.5.5zM899.5 370l.5 14.5h-1zM897.5 376l.5 7.5h-1zM250.5 379l2.5 1.5-2.5.5zM278.5 384l2.5.5-.5 1.5-2.5-.5zM899.5 405l.5 21.5h-1zM897.5 413l.5 9.5h-1zM24.5 437l5.5.5-5.5.5zM175.5 437l3.5.5-3.5.5z" opacity=".173"/><path fill="#f4f7f3" d="m88.5 35 4.5.5-.5 1.5-4.5-.5zM108.5 35l3.5.5-.5 1.5-3.5-.5zM116.5 35l2.5.5-2.5 1.5zM125.5 35l6.5.5-6.5 1.5zM134.5 35l5.5 3.5-1.5.5zM80.5 37l-1 2-1.5-.5zM73.5 39l.5 8.5h-1zM57.5 40l2.5.5q-5.25.75-7.5 4.5l3-4zM78.5 40l.5 6.5h-1zM161.5 41l2.5 1.5-1.5-.5zM155.5 50l3.5 1.5-.5 1.5-4.5-1.5zM86.5 52l9.5.5-9.5.5zM97.5 52l7.5.5-7.5.5zM106.5 52l3.5.5-3.5.5zM111.5 52l19.5.5-19.5.5zM42.5 57l.5 2.5-2-1zM177.5 62l1.5 3.5h-1l-.5-1.5-.5 28.5 3 2-1.5.5-2.5-1.5v-30zM39.5 63l2.5.5-.5 4.5-1-4zM41.5 69l.5 12.5-1.5.5.5-3.5-.5-4.5-1.5-.5 2-1zM41.5 85l.5 8.5-1.5.5.5-1.5zM35.5 93l3.5 1.5-3.5.5zM83.5 93l4.5.5-4.5.5zM107.5 93l2.5.5-3.5 1.5zM829.5 93l2.5 1.5-1.5-.5zM186.5 94l8 4 4.5.5-2.5 1.5-9-4zM29.5 95l2.5.5-6.5 2.5 1-2zM17.5 98l4.5 1.5-3.5 1.5zM16.5 102l.5 1.5-2 1zM868.5 103l2.5 1.5-1.5.5zM205.5 109l1.5.5 1 5h-1zM123.5 118l5.5 1.5-.5 1.5 2.5-1.5.5-1.5q3.5 2-1 4l-12.5 9.5-.5 1.5-5.5-1.5-1-2 2-1-.5-1.5 1.5-.5q-2.25-1.25.5-2.5l1.5-.5 1.5-2.5q1.5 2.5 3-1l2.5-.5zm-3.5 4-3 2-1 2 4 2 2-3 4-1zm-5 6-1 3h3v-1zM835.5 118q4.6-.6 6 2l1.5-.5.5 1.5 1.5-.5q-2.25 1.25.5 2.5l1.5.5-1 1v9l.5 1.5q-1.25-2.25-2.5.5l2 4-2 1 1 4h-2l1 4-2 1 1 2h-2l-2 5 .5 1.5-2.5 1.5.5 1.5q-1.75-2.75-3.5 1.5l-.5 1.5-2-1v2q-1.7-2.8-7-2l-3 2v-2l-2.5-1.5-.5-1.5-1.5-.5 1-1v-8l-.5-1.5 1.5.5-1-4 2-1-1-4h2l-1-4 2-1 .5-2.5q.75 2.75 5 2l1.5-2.5-.5-1.5 1.5-.5.5-1.5 1.5-.5-.5-1.5-5.5 1.5 1 3-3.5.5-.5-1.5 2-1-.5-1.5 1.5-.5v-4l2.5-2.5h2l4.5-1.5zm8.5 9-1 2h-1v1h3zm-16 9 2 2v-1zm-7 16q0 4 2 1zM614.5 119l1 1h9l2.5 1.5 1 3h-1l-.5-1.5q-2.75 1.25-.5 2.5l.5 1.5 3-2 .5 2.5v2l-.5 1.5-1.5.5 1 5h-2l1 5h-1l-.5-1.5-.5 4.5.5 1.5-1.5-.5 1 4h-2l1 5-2 1 1 3h-2l1 5h-2l1 4-2 1-1 7 .5 1.5-1.5.5 1 3h-2l-1 2 .5 1.5-1.5-.5-1.5-2.5-3 1-2-1-.5 2.5 1.5-.5 1.5.5.5 1.5 1-2 1.5.5.5 1.5 1.5.5 1 4h-2l1 4h-2l1 5h-2l1 4h-2l1 4h-2l1 5h-2l1 4-2 1 1 4h-2l1 4h-2l-1 6 .5 1.5-4-2-3 2v-1l1.5-.5-.5-3.5-2.5 5.5 1.5 2.5 1-2 2 1 1-2 2.5 1.5-2 1-2 3 .5 1.5-1.5-.5-.5 2.5-3.5-.5 1 2-1.5-.5-2.5-.5-.5-1.5q-1.25 2.25-2.5-.5l-.5-1.5-.5 3.5 2 1-4.5 1.5v-2l-3-1-1.5.5v-2l-.5-2.5-1.5.5 1-1 1-12-.5-1.5 1.5-.5-1-3 2-1 .5-2.5 1 3h12l1.5-1.5-2.5-1.5-3 1-.5-1.5 6-1-6-3 5-1-.5-1.5q-7.5-1.5-11 1l-1.5-3.5 2-1-1-4 2.5 1.5 4 1 2-1 4 1 1.5-2.5-5-1 7-2-6.5-.5-2.5 1.5-.5-1.5-5.5-.5 2-1 .5-1.5 3 1 3-1h2l3.5-.5-2.5-1.5-2 1-3.5-1.5.5-1.5 3 1 1.5-.5-.5-2.5-6 1 1-2 4.5-1.5-3.5-.5-2 1-1.5-2.5 1.5.5 1.5-.5-1-4 1-4-.5-1.5 1.5.5-1-4 2-1-1-4 2-1-1-3h2l.5-4.5 2 1-1.5-2.5-1-3 2.5-.5q6.75 1.75 8.5-1.5l-6.5-1.5-1 2-1.5-.5-1-2h2l-1-5h2l-1-4 2-1 .5-2.5 3 1 2.5-1.5 1-2-.5-1.5 1.5-.5 2-5-1-3 .5-1.5-3 1 .5-1.5.5-1.5h2l1.5-.5zm.5 5v1l8 1v-1zm-2 7v5-2q2-2 0-3m8 4-2 2h3zm-13 8 2 2v-1zm6 0v2l2-1zm7 0-3 2 4 1 2-1zm-18 3-1 2 2 1zm18 5-1 2h3v-1zm-1 3-2 2h3zm-16 1q-3 1-2 5l-2 1 2 1-1 3 2-1 2 1 3-1 1 1-1-3-3 1-2-2 1-3zm13 4v1h4zm-17 7-1 2h5v-1zm10 0-1 2 2-1 5 1h3l-1-2zm-10 3v6h-2l1-3-1-1-2 5h3v2l-4 1 1 1 3-1 2 1 1-2 1 2 2-1-2-1 1-7-2-2v2zm16 1-3 5 4 1q2-1 1-5zm1 7-1 1-10 1 7 1 4-1zm-16 4-2 2 3 1 1-2zm3 8-2 1v1h2zm6 4q-1 2 3 2v-1zm-5 5-3 5h3l-1-1 1-2zm7 0-1 4h1zm-4 2v3h1zm-1 4-3 1 1 2q3 1 4-1zm-14 1q-3 2 0 3l6-1zm-3 1-2 2h3zm15 2-4 2h5l4 1v-1zm-1 4-3 2 1 5 6-1-4-1-1-1 3-1v-2zm-18 8 1 3 4-1 7 1 1-2zm5 4-1 2h3v-1zm1 3-3 6-2-2 2-1-3-2q-4 2 0 4h-2l-1 2h6l3 1-1-2 1-3 2-1zm2 3v4h1zm-9 6v2h5zm7 0q-1 2 3 1l2 3v-2h4q-3-3-9-2m-4 3-1 2 2 1z" opacity=".992"/><path fill="#f4f7f3" d="m90.5 123 4 1 2-1v2q9.81-.31 12.5 6.5l-.5 1.5 6.5 3.5-2 1 .5 1.5 2-1h2q6.4.9 9.5-1.5l-7.5-1.5-1 2-2.5-1.5 3.5-1.5 9 1 2-1v2l3-1 1 2 4.5 2.5 1 4-2.5-1.5q-1.5 3.5-3 1l-1.5-.5 3-1-.5-1.5-4.5-.5-.5-2.5-3.5.5-1 3 3.5 1.5 2.5 1.5-4.5 2.5v-2l-2 1-7-3-.5 2.5.5 1.5 1.5.5 5 11-8.5 8.5-1.5-.5-.5 1.5-3 1-.5-2.5 3-1-2-6 1-5h-2l1-4-6.5-8.5-2.5-.5 2-1-2.5-2.5h-2l-2.5-.5 1-3-1.5-.5-1 3-3-2q-1.75 2.75-8 1l-3-2 1 3q-1.5-2.5-3 1l-2 1-.5-1.5 1.5-3.5 1.5-.5q-2.25-1.25.5-2.5l1.5-.5-1-1 3.5-3.5 4.5-.5zm-1.5 3-1 2 4 1v-1zm-3 1-1 4 3 1q4 1 6-1l-5-2-2 1zm14 0-1 2 2-1zm6 5v7h4l-2 3h4v-4l-2-1-2-3zm-5 1v3h2v-1zm12 12v1h4zm5 7-1 2h5q-1-3-4-2m-3 4-1 3 3 1h-2l-1 2 3 1 1-2 5-3v-2q-5-1-6 1zM607.5 124l2.5 1.5-.5 1.5-2.5.5 2 1-1.5 2.5-2 1-.5-1.5 1-2-.5-1.5 1.5-.5zM255.5 129l.5 3.5h-1zM8.5 141l.5 3.5H8z" opacity=".992"/><path fill="#f4f7f3" d="m99.5 141 5.5 2.5-3.5 1.5q-1.25-2.25-2.5.5.75 2.25 4.5 1.5h2l3.5.5 2 3h-2l-2 4 1 2-2.5 7.5-2-1 .5 1.5 1 3-2.5 6.5-1.5.5 1 2-2 3v2l-1.5 7.5-1.5.5 1 5-2 3 1 4-2 1 .5 1.5-1.5-.5 2 6v17l-1 5 2 4-1 4 2 1-1 4 2 1-1 2 3 7-1 3 1.5 4.5 1.5.5 2 8-17.5.5-5-6-1.5-.5-.5-1.5-3.5-2.5 1-5q-3.12-5.37-2-15l2-7-1-5q2.75-.75 2-5l-1-3h1l1.5 3.5 8-1 1 2 4.5-2.5-4.5-1.5-2 1-2.5-1.5 3.5-1.5 3 1q2.75-1.25.5-2.5l1-5-2-4h2l-.5-2.5-2.5-.5 3-1-.5-2.5-6.5-.5-.5-1.5-1.5 3.5 1.5 2.5-1.5.5 4.5 2.5 1.5-.5-.5 1.5-2 1q-2.25-4.25-4.5.5l4.5 1.5 2-1 1 2-7.5.5.5 1.5 4.5.5-7 1-.5 2.5-1.5-4.5 3-13 2-2v-2l2-4v-2l1.5-5.5 1.5-.5-.5-1.5 1.5-.5v-2l2.5-6.5 1.5-.5-.5-1.5 1.5-.5-.5-1.5 1.5-.5 3.5-8.5 1.5-.5-.5-1.5 1.5-.5 1.5-4.5 1.5-.5 1.5-4.5 1.5-.5-3-2-.5 1.5-3-1v2h-2l-5.5 5.5-.5 1.5-1.5.5 1 3-2-1-3-5 .5-1.5-1.5-.5-1-5 2.5-1.5-.5 1.5.5 2.5 2.5 1.5.5 2.5 2.5-.5q-3.75-1.75-.5-3.5l3-2 3 1 .5-1.5-3-1-.5-1.5-1.5.5q2.25 1.25-.5 2.5l-4 1-1.5-4.5 4.5-2.5 1 1zm1.5 25v2l2-1zm-2 4q-2 3 1 4l1-3zm-2 4q-3 1-2 5h-1l-2 4 1 2q4 1 5-1l-1-2 1-5 2-1zm-6 12-1 2 2-1v2h5v-2zm-1 4-2 2 1 1 7-1q-1-3-2-1zm0 4-1 2 4-1zm5 0-2 3-5 2-1 2h6l2-5zm-14 31v3q3-1 0-3m11 0-1 2 2 1zm-8 1q-1 2 2 1 1 2 2 0zm5 3-2 2 4 1v-1zm-5 7-1 2 10 1v-1zm-4 2v1h3zm9 3v2h3zm2 3-1 2 2 1zm-12 1v1h5zm16 7-2 2h3v-1zM130.5 145l1.5.5.5 1.5 4-1 1 1 2.5-1.5 1 2v2l-2.5 5.5-1.5-.5-5.5-7.5-2.5-.5zm6.5 2-2 1v1h2zM8.5 154l.5 8.5H8zM8.5 165l.5 42.5H8zM796.5 176l2.5.5-.5 1.5zM437.5 191l3.5.5-3.5.5zM591.5 191l1.5 2.5-2.5.5-1.5-1.5h2zM825.5 191l1 2 2-1 1 3 1.5.5-1 1v10l.5 1.5-1.5-.5-1 8 .5 1.5-1.5.5 1 4-2 1 1 3-2 1 1 3h-2l-3 7q2.25 1.25-.5 2.5l-1.5.5-.5 1.5-3.5-.5-.5 1.5-5-1-2 1-1-2-1.5.5-.5 1.5-1.5-.5.5-1.5-2 1-2.5-1.5 4-2-3.5-1.5-1.5.5 1.5-2.5 1.5-.5-2-8 1.5.5 2 1 .5-1.5-2-1-1-4 2-1-1-4 2-1-1-3 2 1 .5 3.5 2.5-.5 1.5-4.5 3.5-1.5-6.5-.5-1.5.5-1-2h2l-1-3 2 1 1.5 2.5.5-1.5-3-4 2-1 1-2-.5-1.5 5.5-4.5.5-1.5 2 1zM808 216l-1 5h1zm11 8v3h4v-1zm-14 3q-2 5 1 8l-1-1-1 4h4q2-1 0-2-1-5 1-6zm12 9v2h2zM858.5 192l.5 3.5h-1zM589.5 199l2.5.5-.5 1.5-2.5-.5zM585.5 210q1.75 3.08 3.5 1.5l-1 2 2 3-2.5-1.5-1.5-.5zM8.5 219l.5 4.5H8zM210.5 230l.5 3.5h-1zM8.5 236l.5 6.5H8zM807.5 243l4.5.5-4.5.5zM220.5 280l3.5.5-3.5.5zM330.5 281l3.5.5-3.5.5zM340.5 281l3.5.5-3.5.5zM220.5 282l12.5.5-12.5.5zM271.5 282l10.5.5-10.5.5zM384.5 282l7.5.5-7.5.5zM415.5 282l3.5.5-3.5.5zM432.5 282l3.5.5-3.5.5zM454.5 282l3.5.5-3.5.5zM463.5 282l12.5.5-12.5.5zM523.5 282l3.5.5-3.5.5zM534.5 282l3.5.5-3.5.5zM539.5 283l.5 3.5h-1zM16.5 285l1.5.5-2.5 1.5zM236.5 285l.5 14.5h-1zM266.5 285l.5 8.5h-1zM452.5 286l.5 15.5h-1zM36.5 292l11.5.5-11.5.5zM50.5 292l9.5.5-9.5.5zM66.5 292l15.5.5-15.5.5zM84.5 292l3.5.5-3.5.5zM90.5 292l13.5.5-13.5.5zM105.5 292l3.5.5-3.5.5zM111.5 292l6.5.5-6.5.5zM119.5 292l5.5.5-5.5.5zM126.5 292l14.5.5-14.5.5zM144.5 292l8.5.5-8.5.5zM156.5 292l26.5.5-26.5.5zM539.5 293l.5 12.5h-1zM266.5 296l.5 10.5-2 1 1-1zM813.5 296l2.5 1.5 1 4h-1zM64.5 297l2.5 1.5-1.5-.5zM334.5 297l3.5.5.5 2.5 5-2v2l2-1 1 2q1.25-2.25 2.5.5l2.5 3.5 1.5.5v2l.5 1.5 1.5.5-1 2 2 1-1 2 2 3v2l-1 2 1 3v2l-1.5 6.5-1.5.5 1 2-1.5 2.5-1.5.5 1 1-5.5 5.5-2 1-1-2-1.5.5 1 2q-3.8 2.7-11.5 1.5l-4.5-1.5-.5-1.5-1 1-3.5-3.5-1.5-2.5-2.5-1.5-2-5v-4l-2-5v-5l1.5.5 2-1 5 1 2-1 3.5 1.5-3 1q2.5 5 5 0l.5-1.5 2.5.5-3 2 2.5 1.5 3-1q1.25 2.25 2.5-.5l-4-1 1.5-1.5h9l1-1 3 1 1.5-2.5-1.5-.5-3 1-1-1h-9l-3 1-4.5-1.5-.5-2.5-1.5.5-.5 2.5-2-1-1 2-6.5-1.5-1-2 2-3-.5-1.5 1.5-.5-.5-1.5 1.5-.5-.5-1.5 2.5-1.5.5-1.5 1.5-.5.5-1.5 3-2 1.5.5.5-1.5 5 2-.5-1.5zm-3.5 4-7 3 2 1-1 2h3v-2h2l2-1zm4 3v4h1zm-12 1-1 3h3zm20 1-2 4v1h5l-1-3zm5 0v4h2v-3zm-19 4 2 3v-1zm-9 2-2 4 2-1 2 1 2-1-3-1zm19 1-9 2 1 1 2-1 3 1 5-1zm-16 8-2 1-2 5 6 1h1v1l-5-1-2 1 1 2 4-1q1 3 3 1l4 1h-3l-1 2 3 1 4-1 2 1 3-1 1 3v-1l3-1 3-1-1-6-1-1-1 6h-2l-2-1-4 1-2-2 3-1-5-1q2-4 4-2v-2l-3 1-2-1-8 1-1-1 3-1zm22 0v5h1zm2 0 2 2v-1zm4 4 2 2h2v-1zm-4 4v1l3 1q4 1 5-1zm-26 3v6l4 1 7-1v-1h-1q-7 1-8-1l3-2-3-2zm27 0v3l-1 2h2l1-4zm5 0-2 3 2 1zm-9 4-3 2 4 1 2-1zm-20 4 2 2v-1zm4 0v3l5-1 3 1v-2zm10 0 1 2 3-1zM634.5 297l.5 1.5-1.5 2.5-1.5-.5zM636.5 297l3.5 2.5v2l3 5-1.5.5zM722.5 297l1.5.5-8.5 18.5-6 1v-1q5.12.62 6.5-2.5l1-6zM152.5 298l3.5.5-3.5.5zM166.5 298l1.5 1.5v8h-1q.67-7.5-.5-9.5M810.5 298l1.5.5-2.5 3.5-.5-2.5zM370.5 299l2 3-1.5-.5zM420.5 299l2.5 1.5-2.5 3.5-.5-2.5zM401.5 300l.5 1.5-2 1zM727.5 300l1.5.5 1 4h-1zM632.5 302l-.5 1.5-4 11-2.5 2.5-6.5-.5q6.29.79 8-3-2.5-1.5 1-3l1.5-5.5 1.5-.5zM808.5 303l1.5.5-2 2-3 9-2.5 2.5-7.5-.5 8-1q1.25-7.75 5.5-12.5M817.5 303l1.5.5 1 2-1.5.5zM452.5 306l.5 4.5h-1zM471.5 307l.5 3.5h-1zM732.5 307l1.5 5.5-1.5.5-1.5-4.5zM819.5 307l3.5 8.5h-1zM642.5 308l1.5.5 2 7h-1zM243.5 312l10.5.5-10.5.5zM255.5 312l6.5.5-6.5.5zM217.5 313l.5 7.5h-1zM734.5 314q1.45 3.05 6.5 2.5l-4.5.5-2.5-1.5zM420.5 315q2.75 1.25.5 2.5l-.5 1.5zM506.5 315l.5 7.5h-1zM647.5 315l6.5 1.5-5.5.5zM659.5 316l4.5 1.5-6.5.5v-1zM793.5 316l.5 1.5-6.5.5v-1q4.75 1.25 6-1M825.5 316l4.5.5-4.5.5zM832.5 316l8.5 1.5-7.5.5zM609.5 317l5.5.5-5.5.5zM698.5 317l6.5.5-6.5.5zM745.5 317l7.5.5-7.5.5zM844.5 317l.5 1.5-1 3-.5 3.5-.5-3.5 1-3zM606.5 319l.5 5.5h-1l-1-4zM665.5 319q2.25.75 1.5 4.5l-5 4-.5 1.5-.5-1.5 3-2 2-4zM695.5 319q2.75 1.25.5 2.5v2l4 5h-1l-1.5-2.5-2.5-1.5-1-3 2-1zM296.5 320l.5 5.5h-1zM754.5 320l2.5.5-1.5 2.5-1.5-.5zM783.5 320l1.5.5-1 2 1 2-2-1zM753.5 324l1.5.5-2.5 3.5-.5-2.5zM608.5 325l7.5 6.5-1.5.5-6.5-5.5zM841.5 325l-3 4-1.5.5-.5 1.5-.5-1.5zM750.5 327l.5 1.5-5.5 3.5v-1l1.5-.5.5-1.5zM788.5 328l7.5 6.5 1 7q-3.36 5.14-3.5 13.5-2.75-1.25-.5-2.5l1-5v-2l1-11-2-1-.5-1.5-1.5-.5-.5-1.5zM471.5 329l4.5.5-4.5.5zM482.5 329l4.5.5-.5 1.5-4-1zM494.5 329l3.5 1.5-2.5.5zM501.5 329l3.5.5-3.5.5zM659.5 329l-6.5 7.5 4 14v4q-3.08 1.75-1.5 3.5h-4l-5.5-4.5 1.5.5 7 2 1.5-2.5-4-13 1-2-1-2 1.5-2.5zM701.5 329l2.5 1.5-1.5.5zM421.5 330l-.5 1.5v18l1 1-1 5 .5 1.5-1.5-.5v-25zM520.5 331l.5 4.5h-1zM833.5 331l1.5.5-3 2zM237.5 333l.5 6.5h-1l-1-4zM616.5 333l2.5 1.5.5 1.5 1.5.5-2 1zM743.5 333l1.5.5-2 1-1 3 1 3 2 10h-1l-3-15zM452.5 334l.5 5.5h-1zM706.5 334q3.25.75 2.5 5.5l-1.5 2.5zM830.5 335l-.5 1.5 4 15-2 1-3-16zM266.5 339l.5 6.5h-1zM539.5 339l.5 5.5h-1zM619.5 339l.5 1.5-2.5 6.5q-3.25-1.75.5-3.5zM299.5 342l2 3-2.5-1.5zM706.5 344l1.5.5-3 10q.75 2.25 4.5 1.5l14-8 .5 1.5q-8.02 1.98-12.5 7.5l-6 1v-2l-1.5-.5v-4zM237.5 345l.5 5.5h-1zM452.5 345l.5 5.5h-1zM498.5 346l9.5.5-9.5.5zM549.5 346l5.5.5-5.5.5zM635.5 347l1.5.5-.5 1.5q-5.13-.63-6.5 2.5l-.5 1.5-.5-1.5zM812.5 347l1.5.5-.5 1.5q-6.58-.58-8.5 3.5l-.5 1.5-9 4-2.5-1.5 1.5-.5h2l6-2zM217.5 348l.5 2.5-1.5.5.5-1.5zM615.5 348l1.5.5-1 7 2.5 1.5 9-5-2 3-8 3-2.5-1.5-1-2zM725.5 348l5.5 2.5-1.5-.5q-4.8.05-4-2M815.5 348l6.5 4.5-.5 1.5zM640.5 349l4.5 3.5-1.5.5zM265.5 350l1.5 2.5-1.5 3.5-.5-2.5 1-2zM732.5 352l10 5 2.5-3.5-.5-1.5 1.5.5-1.5 4.5-4 1-7-4zM823.5 353l5 4 3.5-1.5.5-1.5 1.5.5q-.5 4-5.5 3.5l-5.5-3.5zM266.5 358l.5 4.5h-1zM420.5 358l1.5 4.5-2-1zM509.5 360l1.5 3.5-2-1zM319.5 361l-1 2-1.5-.5zM219.5 363l3.5.5q-1.25 2.75-2.5.5zM224.5 363l2.5.5-.5 1.5-2.5-.5zM326.5 363l-1 2-2.5-.5zM346.5 363l2.5 1.5-2.5.5zM523.5 363l4.5.5-4.5.5zM555.5 363l3.5.5-3.5.5zM564.5 363l5.5.5-5.5.5z" opacity=".992"/><path fill="#ced6bf" d="m93.5 36 14.5.5-14.5.5zM112.5 36l3.5.5-3.5.5zM127.5 36l7.5.5-7.5.5zM63.5 39l8.5.5-8.5.5zM150.5 39l3.5.5-3.5.5zM57.5 41l1.5.5-4.5 2.5 1-2zM159.5 41l3.5 1.5-1.5.5zM82.5 50l4.5.5-4.5.5zM132.5 50l3.5.5-3.5.5zM51.5 63l1 31 49.5.5-50.5.5zM166.5 63l.5 31.5-8.5.5v-1l7.5-.5zM107.5 94l40.5.5-40.5.5zM149.5 94l7.5.5-7.5.5zM183.5 95l3.5.5-3.5.5zM333.5 96l5.5.5-5.5.5zM773.5 96l9.5.5-9.5.5zM22.5 99l-1 2-6 5 5-6zM230.5 106l.5 4.5h-1zM870.5 106l2.5 3.5-2-1zM616.5 118l5.5.5-5.5.5zM229.5 119l.5 3.5h-1zM847.5 125l.5 6.5h-1zM874.5 127l.5 3.5h-1zM120.5 130l-2.5 3.5.5 1.5-1.5-1.5zM102.5 138l2.5 1.5-1.5-.5zM119.5 143l1.5.5-2.5 1.5zM141.5 145l.5 3.5h-1zM99.5 151l1.5.5-6.5 5.5zM125.5 156l.5 1.5-7 6zM823.5 165l6.5.5-6.5.5zM464.5 166l3.5.5-3.5.5zM225.5 182l.5 3.5h-1zM819.5 190l3.5.5-3.5.5zM858.5 196l.5 3.5h-1zM96.5 202l.5 4.5h-1zM223.5 211l.5 4.5h-1zM96.5 229l.5 3.5h-1zM76.5 234l.5 5.5h-1zM770.5 235l.5 3.5h-1zM76.5 250l.5 6.5h-1zM457.5 264l.5 1.5-2 1zM105.5 270l.5 1.5-17.5.5v-1h16zM325.5 282l3.5.5-3.5.5zM344.5 282l3.5.5-3.5.5zM396.5 282l3.5.5-3.5.5zM402.5 282l9.5.5-9.5.5zM419.5 282l9.5.5-9.5.5zM458.5 282l4.5.5-4.5.5zM484.5 282l7.5.5-7.5.5zM443.5 284l.5 13.5-2 1 1-1zM354.5 285l2.5 1.5-1.5-.5zM60.5 292l3.5.5-3.5.5zM635.5 297l2 3-1.5-.5 3 8-1 2 2 1-2 1 1.5 6.5 1.5.5q-.75 3.75 1.5 4.5l2.5.5-1.5 4.5-2.5.5-2 3 1 4v2l-.5 4.5-4-2-5 3q1.58-1.75-1.5-3.5l2-7v-6l-6-5-1.5-2.5-12 1-3-1-.5 1.5 13 15-1.5.5-2-3-1.5-.5-1.5-2.5-7.5-6.5.5-5.5 18-1 2.5-2.5zM724.5 297l2.5 1.5-.5 1.5-1.5-.5 3 9-1 3 1.5 8.5 1.5.5q-2.25 1.25.5 2.5l3.5.5-1 3 .5 1.5-4.5 1.5 1 5-2 3 2 4-1.5.5-4-2-5 3q1.58-1.75-1.5-3.5l3-10-1.5-3.5-4.5-3.5-.5-1.5-1.5-.5.5-1.5-13 1-3-1-1.5.5.5-1.5 17-1 3-2 1 2 2.5-6.5h-1l-1.5 3.5-.5-1.5 4.5-9.5 1 2 1.5-4.5-1-2zM812.5 297l2.5 1.5-2 1 2 6-1 2 1 2-1 2 3.5 7.5 1.5.5-1 3 4 2-2.5 3.5-1.5.5-1 9 1 3-.5 1.5-5-2-7 4v-1l1.5-.5v-2l2-13-5-4-.5-2.5-1.5-.5.5-1.5-14 1-3-1-1.5.5.5-1.5 18-1 2.5-2.5 4.5-10.5 1 2 1.5-4.5h-1l-.5 1.5-.5-1.5zm-5.5 16-2 4 2-1zM51.5 298l8.5.5-8.5.5zM62.5 298l3.5.5-3.5.5zM156.5 298l7.5.5-7.5.5zM381.5 298l20.5.5-20.5.5zM420.5 298l20.5.5-20.5.5zM470.5 298l36.5.5-36 1 .5 13.5 33.5.5-34.5.5zM452.5 302l.5 3.5h-1zM816.5 302l4.5 10.5h-1zM639.5 303l2.5 5.5h-1zM728.5 303l2.5 5.5h-1z" opacity=".98"/><path fill="#ced6bf" d="m642.5 310 3 6 20.5 2.5-8.5 1.5-1-1h-12l-1.5-1.5 1-3zM452.5 311l.5 4.5h-1zM236.5 312l3.5.5-3.5.5zM262.5 312l4.5.5-4.5.5zM732.5 313l2 3 11 2h8l1.5 1.5-1 3-2.5 4.5-4.5 2.5-.5 1.5-1.5.5-.5 1.5-3.5 2.5-.5 3.5-.5-4.5 7-6 2.5-3.5 2.5-1.5-1-1 2.5-3.5-9 1-1-1-10.5-.5zM821.5 314l1 2 20.5 2.5q1.25 7.25-3.5 8.5l-7.5 5.5-3.5 6.5-.5-4.5 12-11 2-4-2.5-.5q-1.5 2.5-7 1l-1-1-10.5-.5 1-2zM402.5 317l.5 8.5h-1zM664.5 320l1.5 2.5-2.5 3.5-10.5 8.5-1.5 4.5-.5-4.5 12-11zM452.5 321l.5 5.5h-1zM696.5 321l2.5 1.5q-2.75 1.75 1.5 3.5l1.5.5.5 1.5 7.5 6.5-1.5 9.5-.5-3.5 1-4-6.5-7.5-6.5-5.5zM784.5 321l2.5 1.5 11 12v6h-1l-1-6-6.5-6.5-4.5-3.5zM375.5 325l.5 3.5h-1zM452.5 328l.5 5.5h-1zM266.5 329l.5 9.5h-1zM470.5 329l1 18 28.5.5-28.5.5-1.5-1.5zM487.5 329l6.5.5-6.5.5zM452.5 340l.5 4.5h-1zM741.5 340l.5 3.5h-1zM618.5 345l.5 2.5-1.5 4.5-.5-4.5zM813.5 345l12 8 6 1 1.5-.5-2.5 3.5-18-10-17 10-1.5-2.5 4.5-.5zM266.5 346l.5 4.5h-1zM633.5 346h5l12 8h4l1.5-.5-1.5 2.5h-3l-16-9-14 9-4 1-1.5-3.5 1.5.5h4zM722.5 346h5l10 7 6 1 1.5-.5-2.5 3.5q-9.04-2.96-15-9h-5l-10 7-6 1-1.5-2.5 1.5.5h4zM795.5 346l.5 2.5-1.5 4.5-.5-3.5zM539.5 347l24.5.5-24.5.5zM334.5 348l4.5.5-4.5.5zM452.5 351l.5 11.5h-1zM266.5 353l.5 4.5h-1zM333.5 364l7.5.5-7.5.5z" opacity=".98"/></svg>